{"accessors":[{"bufferView":2,"componentType":5126,"count":2183,"max":[0.5,0.5,3.1750001907348633],"min":[-0.5,-0.5,6.682022649329156e-05],"type":"VEC3"},{"bufferView":2,"byteOffset":26196,"componentType":5126,"count":2183,"max":[0.9999992251396179,1.0,1.0],"min":[-0.9999997615814209,-1.0,-1.0],"type":"VEC3"},{"bufferView":3,"componentType":5126,"count":2183,"max":[0.9999999403953552,1.0,1.0,1.0],"min":[-1.0,-1.0,-1.0,-1.0],"type":"VEC4"},{"bufferView":1,"componentType":5126,"count":2183,"max":[0.9973528385162354,0.9918983578681946],"min":[0.002640899270772934,0.0026396140456199646],"type":"VEC2"},{"bufferView":0,"componentType":5125,"count":8466,"type":"SCALAR"}],"asset":{"extras":{"author":"cedeon (https://sketchfab.com/cedeon)","license":"CC-BY-4.0 (http://creativecommons.org/licenses/by/4.0/)","source":"https://sketchfab.com/3d-models/stone-pillar-4b74c340d1bf47ccad35b57deb78b58a","title":"Stone Pillar"},"generator":"Sketchfab-12.68.0","version":"2.0"},"bufferViews":[{"buffer":0,"byteLength":33864,"name":"floatBufferViews","target":34963},{"buffer":0,"byteLength":17464,"byteOffset":33864,"byteStride":8,"name":"floatBufferViews","target":34962},{"buffer":0,"byteLength":52392,"byteOffset":51328,"byteStride":12,"name":"floatBufferViews","target":34962},{"buffer":0,"byteLength":34928,"byteOffset":103720,"byteStride":16,"name":"floatBufferViews","target":34962}],"buffers":[{"byteLength":138648,"uri":"stone.bin"}],"images":[{"uri":"textures/stone_pillar_baseColor.jpg"},{"uri":"textures/stone_pillar_metallicRoughness.jpg"},{"uri":"textures/stone_pillar_normal.png"}],"materials":[{"doubleSided":true,"name":"Material","normalTexture":{"index":2},"pbrMetallicRoughness":{"baseColorTexture":{"index":0},"metallicRoughnessTexture":{"index":1}}}],"meshes":[{"name":"Pillar_low_Material_0","primitives":[{"attributes":{"NORMAL":1,"POSITION":0,"TANGENT":2,"TEXCOORD_0":3},"indices":4,"material":0,"mode":4}]}],"nodes":[{"children":[1],"matrix":[1.0,0.0,0.0,0.0,0.0,2.220446049250313e-16,-1.0,0.0,0.0,1.0,2.220446049250313e-16,0.0,0.0,0.0,0.0,1.0],"name":"Sketchfab_model"},{"children":[2],"matrix":[1.0,0.0,0.0,0.0,0.0,0.0,1.0,0.0,0.0,-1.0,0.0,0.0,0.0,0.0,0.0,1.0],"name":"e6bd1614f9c9488687ef864ed3e4f115.fbx"},{"children":[3],"name":"RootNode"},{"children":[4],"matrix":[100.0,0.0,0.0,0.0,0.0,-1.629206793918314e-05,-99.99999999999868,0.0,0.0,99.99999999999868,-1.629206793918314e-05,0.0,0.0,0.0,0.0,1.0],"name":"Pillar_low"},{"mesh":0,"name":"Pillar_low_Material_0"}],"samplers":[{"magFilter":9729,"minFilter":9987,"wrapS":10497,"wrapT":10497}],"scene":0,"scenes":[{"name":"Sketchfab_Scene","nodes":[0]}],"textures":[{"sampler":0,"source":0},{"sampler":0,"source":1},{"sampler":0,"source":2}]}