{
	"asset":{
		"generator":"Khronos glTF Blender I/O v4.2.57",
		"version":"2.0"
	},
	"scene":0,
	"scenes":[
		{
			"name":"Scene",
			"nodes":[
				7
			]
		}
	],
	"nodes":[
		{
			"mesh":0,
			"name":"SM_MERGED_bookscomp106_MI_Books_01_0",
			"translation":[
				-7.033348083496094e-06,
				0,
				-3.3080577850341797e-06
			]
		},
		{
			"mesh":1,
			"name":"SM_MERGED_bookscomp106_MI_Books_02_0",
			"translation":[
				-7.033348083496094e-06,
				0,
				-3.3080577850341797e-06
			]
		},
		{
			"mesh":2,
			"name":"SM_MERGED_bookscomp106_MI_Books_03_0",
			"translation":[
				-7.033348083496094e-06,
				0,
				-3.3080577850341797e-06
			]
		},
		{
			"mesh":3,
			"name":"SM_MERGED_bookscomp106_MI_BookShelf_01_0",
			"translation":[
				-7.033348083496094e-06,
				0,
				-3.3080577850341797e-06
			]
		},
		{
			"children":[
				0,
				1,
				2,
				3
			],
			"name":"SM_MERGED_bookscomp106",
			"translation":[
				-7.033348083496094e-06,
				0,
				-3.3080577850341797e-06
			]
		},
		{
			"children":[
				4
			],
			"name":"RootNode",
			"translation":[
				-7.033348083496094e-06,
				0,
				-3.3080577850341797e-06
			]
		},
		{
			"children":[
				5
			],
			"name":"fae84568ffbd43a59400b27671831ecf.fbx",
			"rotation":[
				-1,
				0,
				0,
				1.1641532182693481e-10
			],
			"translation":[
				-7.033348083496094e-06,
				0,
				3.3080577850341797e-06
			]
		},
		{
			"children":[
				6
			],
			"name":"Sketchfab_model",
			"rotation":[
				0.6674086451530457,
				-0.2563222050666809,
				0.25392308831214905,
				0.6514504551887512
			],
			"translation":[
				-161.62210083007812,
				-86.22664642333984,
				10.638466835021973
			]
		}
	],
	"materials":[
		{
			"doubleSided":true,
			"name":"MI_Books_01",
			"normalTexture":{
				"index":0
			},
			"pbrMetallicRoughness":{
				"baseColorTexture":{
					"index":1
				},
				"metallicFactor":0,
				"metallicRoughnessTexture":{
					"index":2
				},
				"roughnessFactor":0.396921306848526
			}
		},
		{
			"doubleSided":true,
			"name":"MI_Books_02",
			"normalTexture":{
				"index":3
			},
			"pbrMetallicRoughness":{
				"baseColorTexture":{
					"index":4
				},
				"metallicFactor":0,
				"metallicRoughnessTexture":{
					"index":5
				},
				"roughnessFactor":0.3178790509700775
			}
		},
		{
			"doubleSided":true,
			"name":"MI_Books_03",
			"normalTexture":{
				"index":6
			},
			"pbrMetallicRoughness":{
				"baseColorTexture":{
					"index":7
				},
				"metallicFactor":0,
				"metallicRoughnessTexture":{
					"index":8
				},
				"roughnessFactor":0.3786807954311371
			}
		},
		{
			"doubleSided":true,
			"name":"MI_BookShelf_01",
			"normalTexture":{
				"index":9
			},
			"pbrMetallicRoughness":{
				"baseColorTexture":{
					"index":10
				},
				"metallicFactor":0,
				"metallicRoughnessTexture":{
					"index":11
				}
			}
		}
	],
	"meshes":[
		{
			"name":"SM_MERGED_bookscomp106_MI_Books_01_0",
			"primitives":[
				{
					"attributes":{
						"POSITION":0,
						"NORMAL":1,
						"TEXCOORD_0":2,
						"TEXCOORD_1":3
					},
					"indices":4,
					"material":0
				}
			]
		},
		{
			"name":"SM_MERGED_bookscomp106_MI_Books_02_0",
			"primitives":[
				{
					"attributes":{
						"POSITION":5,
						"NORMAL":6,
						"TEXCOORD_0":7,
						"TEXCOORD_1":8
					},
					"indices":9,
					"material":1
				}
			]
		},
		{
			"name":"SM_MERGED_bookscomp106_MI_Books_03_0",
			"primitives":[
				{
					"attributes":{
						"POSITION":10,
						"NORMAL":11,
						"TEXCOORD_0":12,
						"TEXCOORD_1":13
					},
					"indices":14,
					"material":2
				}
			]
		},
		{
			"name":"SM_MERGED_bookscomp106_MI_BookShelf_01_0",
			"primitives":[
				{
					"attributes":{
						"POSITION":15,
						"NORMAL":16,
						"TEXCOORD_0":17,
						"TEXCOORD_1":18
					},
					"indices":19,
					"material":3
				}
			]
		}
	],
	"textures":[
		{
			"sampler":0,
			"source":0
		},
		{
			"sampler":0,
			"source":1
		},
		{
			"sampler":0,
			"source":2
		},
		{
			"sampler":0,
			"source":3
		},
		{
			"sampler":0,
			"source":4
		},
		{
			"sampler":0,
			"source":5
		},
		{
			"sampler":0,
			"source":6
		},
		{
			"sampler":0,
			"source":7
		},
		{
			"sampler":0,
			"source":8
		},
		{
			"sampler":0,
			"source":9
		},
		{
			"sampler":0,
			"source":10
		},
		{
			"sampler":0,
			"source":11
		}
	],
	"images":[
		{
			"mimeType":"image/jpeg",
			"name":"MI_Books_01_normal",
			"uri":"textures/MI_Books_01_normal.jpg"
		},
		{
			"mimeType":"image/jpeg",
			"name":"MI_Books_01_baseColor",
			"uri":"textures/MI_Books_01_baseColor.jpg"
		},
		{
			"mimeType":"image/jpeg",
			"name":"MI_Books_01_metallicRoughness",
			"uri":"textures/MI_Books_01_metallicRoughness.jpg"
		},
		{
			"mimeType":"image/jpeg",
			"name":"MI_Books_02_normal",
			"uri":"textures/MI_Books_02_normal.jpg"
		},
		{
			"mimeType":"image/jpeg",
			"name":"MI_Books_02_baseColor",
			"uri":"textures/MI_Books_02_baseColor.jpg"
		},
		{
			"mimeType":"image/jpeg",
			"name":"MI_Books_02_metallicRoughness",
			"uri":"textures/MI_Books_02_metallicRoughness.jpg"
		},
		{
			"mimeType":"image/jpeg",
			"name":"MI_Books_03_normal",
			"uri":"textures/MI_Books_03_normal.jpg"
		},
		{
			"mimeType":"image/jpeg",
			"name":"MI_Books_03_baseColor",
			"uri":"textures/MI_Books_03_baseColor.jpg"
		},
		{
			"mimeType":"image/jpeg",
			"name":"MI_Books_03_metallicRoughness",
			"uri":"textures/MI_Books_03_metallicRoughness.jpg"
		},
		{
			"mimeType":"image/jpeg",
			"name":"MI_BookShelf_01_normal",
			"uri":"textures/MI_BookShelf_01_normal.jpg"
		},
		{
			"mimeType":"image/jpeg",
			"name":"MI_BookShelf_01_baseColor",
			"uri":"textures/MI_BookShelf_01_baseColor.jpg"
		},
		{
			"mimeType":"image/jpeg",
			"name":"MI_BookShelf_01_metallicRoughness",
			"uri":"textures/MI_BookShelf_01_metallicRoughness.jpg"
		}
	],
	"accessors":[
		{
			"bufferView":0,
			"componentType":5126,
			"count":5762,
			"max":[
				139.5889892578125,
				126.88360595703125,
				163.370361328125
			],
			"min":[
				-15.702850341796875,
				-24.980743408203125,
				-82.15629577636719
			],
			"type":"VEC3"
		},
		{
			"bufferView":1,
			"componentType":5126,
			"count":5762,
			"type":"VEC3"
		},
		{
			"bufferView":2,
			"componentType":5126,
			"count":5762,
			"type":"VEC2"
		},
		{
			"bufferView":3,
			"componentType":5126,
			"count":5762,
			"type":"VEC2"
		},
		{
			"bufferView":4,
			"componentType":5123,
			"count":18780,
			"type":"SCALAR"
		},
		{
			"bufferView":5,
			"componentType":5126,
			"count":3776,
			"max":[
				131.951171875,
				119.94232177734375,
				157.86199951171875
			],
			"min":[
				-13.451873779296875,
				-23.67669677734375,
				-81.48721313476562
			],
			"type":"VEC3"
		},
		{
			"bufferView":6,
			"componentType":5126,
			"count":3776,
			"type":"VEC3"
		},
		{
			"bufferView":7,
			"componentType":5126,
			"count":3776,
			"type":"VEC2"
		},
		{
			"bufferView":8,
			"componentType":5126,
			"count":3776,
			"type":"VEC2"
		},
		{
			"bufferView":9,
			"componentType":5123,
			"count":12360,
			"type":"SCALAR"
		},
		{
			"bufferView":10,
			"componentType":5126,
			"count":890,
			"max":[
				136.44088745117188,
				115.61123657226562,
				107.51421356201172
			],
			"min":[
				5.189544677734375,
				-7.488922119140625,
				-81.43324279785156
			],
			"type":"VEC3"
		},
		{
			"bufferView":11,
			"componentType":5126,
			"count":890,
			"type":"VEC3"
		},
		{
			"bufferView":12,
			"componentType":5126,
			"count":890,
			"type":"VEC2"
		},
		{
			"bufferView":13,
			"componentType":5126,
			"count":890,
			"type":"VEC2"
		},
		{
			"bufferView":14,
			"componentType":5123,
			"count":2880,
			"type":"SCALAR"
		},
		{
			"bufferView":15,
			"componentType":5126,
			"count":649,
			"max":[
				160.12353515625,
				145.25015258789062,
				193.74050903320312
			],
			"min":[
				-34.8212890625,
				-40.52189636230469,
				-107.8318099975586
			],
			"type":"VEC3"
		},
		{
			"bufferView":16,
			"componentType":5126,
			"count":649,
			"type":"VEC3"
		},
		{
			"bufferView":17,
			"componentType":5126,
			"count":649,
			"type":"VEC2"
		},
		{
			"bufferView":18,
			"componentType":5126,
			"count":649,
			"type":"VEC2"
		},
		{
			"bufferView":19,
			"componentType":5123,
			"count":2610,
			"type":"SCALAR"
		}
	],
	"bufferViews":[
		{
			"buffer":0,
			"byteLength":69144,
			"byteOffset":0,
			"target":34962
		},
		{
			"buffer":0,
			"byteLength":69144,
			"byteOffset":69144,
			"target":34962
		},
		{
			"buffer":0,
			"byteLength":46096,
			"byteOffset":138288,
			"target":34962
		},
		{
			"buffer":0,
			"byteLength":46096,
			"byteOffset":184384,
			"target":34962
		},
		{
			"buffer":0,
			"byteLength":37560,
			"byteOffset":230480,
			"target":34963
		},
		{
			"buffer":0,
			"byteLength":45312,
			"byteOffset":268040,
			"target":34962
		},
		{
			"buffer":0,
			"byteLength":45312,
			"byteOffset":313352,
			"target":34962
		},
		{
			"buffer":0,
			"byteLength":30208,
			"byteOffset":358664,
			"target":34962
		},
		{
			"buffer":0,
			"byteLength":30208,
			"byteOffset":388872,
			"target":34962
		},
		{
			"buffer":0,
			"byteLength":24720,
			"byteOffset":419080,
			"target":34963
		},
		{
			"buffer":0,
			"byteLength":10680,
			"byteOffset":443800,
			"target":34962
		},
		{
			"buffer":0,
			"byteLength":10680,
			"byteOffset":454480,
			"target":34962
		},
		{
			"buffer":0,
			"byteLength":7120,
			"byteOffset":465160,
			"target":34962
		},
		{
			"buffer":0,
			"byteLength":7120,
			"byteOffset":472280,
			"target":34962
		},
		{
			"buffer":0,
			"byteLength":5760,
			"byteOffset":479400,
			"target":34963
		},
		{
			"buffer":0,
			"byteLength":7788,
			"byteOffset":485160,
			"target":34962
		},
		{
			"buffer":0,
			"byteLength":7788,
			"byteOffset":492948,
			"target":34962
		},
		{
			"buffer":0,
			"byteLength":5192,
			"byteOffset":500736,
			"target":34962
		},
		{
			"buffer":0,
			"byteLength":5192,
			"byteOffset":505928,
			"target":34962
		},
		{
			"buffer":0,
			"byteLength":5220,
			"byteOffset":511120,
			"target":34963
		}
	],
	"samplers":[
		{
			"magFilter":9729,
			"minFilter":9987
		}
	],
	"buffers":[
		{
			"byteLength":516340,
			"uri":"bookshelf.bin"
		}
	]
}
