{"accessors":[{"bufferView":2,"componentType":5126,"count":1919,"max":[0.36144599318504333,0.4376170039176941,2.3455588817596436],"min":[-0.3614799976348877,-0.4366230070590973,-0.028620000928640366],"type":"VEC3"},{"bufferView":2,"byteOffset":23028,"componentType":5126,"count":1919,"max":[0.9949167370796204,0.9947170615196228,0.8845126032829285],"min":[-0.9991997480392456,-0.9945759177207947,-0.8583282828330994],"type":"VEC3"},{"bufferView":3,"componentType":5126,"count":1919,"max":[0.9975618720054626,0.9995673894882202,0.9189707040786743,1.0],"min":[-0.9946044683456421,-0.9949167370796204,-0.946567952632904,-1.0],"type":"VEC4"},{"bufferView":1,"componentType":5126,"count":1919,"max":[0.9892809987068176,0.9882519841194153],"min":[0.008995000272989273,0.006697000004351139],"type":"VEC2"},{"bufferView":0,"componentType":5125,"count":9912,"type":"SCALAR"}],"asset":{"extras":{"author":"alexknight (https://sketchfab.com/alexknight)","license":"CC-BY-4.0 (http://creativecommons.org/licenses/by/4.0/)","source":"https://sketchfab.com/3d-models/medieval-pillar-45db128762cc4d1f8ba2680c09ee177e","title":"Medieval pillar"},"generator":"Sketchfab-13.58.0","version":"2.0"},"bufferViews":[{"buffer":0,"byteLength":39648,"name":"floatBufferViews","target":34963},{"buffer":0,"byteLength":15352,"byteOffset":39648,"byteStride":8,"name":"floatBufferViews","target":34962},{"buffer":0,"byteLength":46056,"byteOffset":55000,"byteStride":12,"name":"floatBufferViews","target":34962},{"buffer":0,"byteLength":30704,"byteOffset":101056,"byteStride":16,"name":"floatBufferViews","target":34962}],"buffers":[{"byteLength":131760,"uri":"medieval.bin"}],"images":[{"uri":"textures/medieval_pillar_baseColor.jpg"},{"uri":"textures/medieval_pillar_metallicRoughness.jpg"},{"uri":"textures/medieval_pillar_normal.png"}],"materials":[{"doubleSided":true,"name":"material","normalTexture":{"index":2,"scale":0.47066749781194706},"occlusionTexture":{"index":1},"pbrMetallicRoughness":{"baseColorTexture":{"index":0},"metallicRoughnessTexture":{"index":1}}}],"meshes":[{"name":"Object_0","primitives":[{"attributes":{"NORMAL":1,"POSITION":0,"TANGENT":2,"TEXCOORD_0":3},"indices":4,"material":0,"mode":4}]}],"nodes":[{"children":[1],"matrix":[1.0,0.0,0.0,0.0,0.0,2.220446049250313e-16,-1.0,0.0,0.0,1.0,2.220446049250313e-16,0.0,0.0,0.0,0.0,1.0],"name":"Sketchfab_model"},{"children":[2],"name":"f6cb7ce0a6f048adb9cd4ee724e34fe4.obj.cleaner.materialmerger.gles"},{"mesh":0,"name":"Object_2"}],"samplers":[{"magFilter":9729,"minFilter":9987,"wrapS":10497,"wrapT":10497}],"scene":0,"scenes":[{"name":"Sketchfab_Scene","nodes":[0]}],"textures":[{"sampler":0,"source":0},{"sampler":0,"source":1},{"sampler":0,"source":2}]}