{"accessors":[{"bufferView":2,"componentType":5126,"count":1497,"max":[0.6658850908279419,0.6626512408256531,3.846275568008423],"min":[-0.6646181344985962,-0.664298951625824,-0.4948534369468689],"type":"VEC3"},{"bufferView":2,"byteOffset":17964,"componentType":5126,"count":1497,"max":[0.9999995827674866,0.9999991655349731,0.9999910593032837],"min":[-0.9999997019767761,-1.0,-0.9978426098823547],"type":"VEC3"},{"bufferView":3,"componentType":5126,"count":1497,"max":[1.0,1.0,0.9999995827674866,1.0],"min":[-1.0,-1.0,-1.0,1.0],"type":"VEC4"},{"bufferView":1,"componentType":5126,"count":1497,"max":[0.9977273941040039,0.999755859375],"min":[0.000244140625,0.000244140625],"type":"VEC2"},{"bufferView":0,"componentType":5125,"count":2988,"type":"SCALAR"}],"asset":{"extras":{"author":"Miko\u0142aj Michalak (https://sketchfab.com/M_Michalak)","license":"CC-BY-4.0 (http://creativecommons.org/licenses/by/4.0/)","source":"https://sketchfab.com/3d-models/dwarven-pillar-61fce2271dad4bffbf85c5e489b0ee2d","title":"Dwarven Pillar"},"generator":"Sketchfab-15.83.0","version":"2.0"},"bufferViews":[{"buffer":0,"byteLength":11952,"name":"floatBufferViews","target":34963},{"buffer":0,"byteLength":11976,"byteOffset":11952,"byteStride":8,"name":"floatBufferViews","target":34962},{"buffer":0,"byteLength":35928,"byteOffset":23928,"byteStride":12,"name":"floatBufferViews","target":34962},{"buffer":0,"byteLength":23952,"byteOffset":59856,"byteStride":16,"name":"floatBufferViews","target":34962}],"buffers":[{"byteLength":83808,"uri":"dwarven.bin"}],"images":[{"uri":"textures/dwarven_pillar_baseColor.jpg"},{"uri":"textures/dwarven_pillar_metallicRoughness.jpg"},{"uri":"textures/dwarven_pillar_normal.png"}],"materials":[{"doubleSided":true,"name":"Scene_-_Root","normalTexture":{"index":2},"occlusionTexture":{"index":1},"pbrMetallicRoughness":{"baseColorTexture":{"index":0},"metallicRoughnessTexture":{"index":1}}}],"meshes":[{"name":"Pillar_01__0","primitives":[{"attributes":{"NORMAL":1,"POSITION":0,"TANGENT":2,"TEXCOORD_0":3},"indices":4,"material":0,"mode":4}]}],"nodes":[{"children":[1],"matrix":[1.0,0.0,0.0,0.0,0.0,2.220446049250313e-16,-1.0,0.0,0.0,1.0,2.220446049250313e-16,0.0,0.0,0.0,0.0,1.0],"name":"Sketchfab_model"},{"children":[2],"matrix":[0.009999999776482582,0.0,0.0,0.0,0.0,0.0,0.009999999776482582,0.0,0.0,-0.009999999776482582,0.0,0.0,0.0,0.0,0.0,1.0],"name":"dwarven_pillar.fbx"},{"children":[3],"name":"RootNode"},{"children":[4],"matrix":[100.0,0.0,0.0,0.0,0.0,-1.629206793918314e-05,-99.99999999999868,0.0,0.0,99.99999999999868,-1.629206793918314e-05,0.0,0.0,50.13387680053711,0.0,1.0],"name":"Pillar_01"},{"mesh":0,"name":"Pillar_01__0"}],"samplers":[{"magFilter":9729,"minFilter":9987,"wrapS":10497,"wrapT":10497}],"scene":0,"scenes":[{"name":"Sketchfab_Scene","nodes":[0]}],"textures":[{"sampler":0,"source":0},{"sampler":0,"source":1},{"sampler":0,"source":2}]}