{
	"asset":{
		"generator":"Khronos glTF Blender I/O v4.2.57",
		"version":"2.0"
	},
	"scene":0,
	"scenes":[
		{
			"name":"Scene",
			"nodes":[
				0,
				1,
				2,
				3,
				4,
				5,
				6
			]
		}
	],
	"nodes":[
		{
			"mesh":0,
			"name":"Cylinder",
			"scale":[
				0.699999988079071,
				2,
				0.699999988079071
			],
			"translation":[
				0,
				-2.022360324859619,
				0
			]
		},
		{
			"mesh":1,
			"name":"Cylinder.001",
			"scale":[
				1,
				0.4000000059604645,
				1
			],
			"translation":[
				0,
				-4.666470050811768,
				0
			]
		},
		{
			"mesh":2,
			"name":"Cylinder.002",
			"scale":[
				0.800000011920929,
				0.20000000298023224,
				0.800000011920929
			],
			"translation":[
				0,
				-4.066470146179199,
				0
			]
		},
		{
			"mesh":3,
			"name":"Cylinder.003",
			"scale":[
				1,
				0.4000000059604645,
				1
			],
			"translation":[
				0,
				0.6819437742233276,
				0
			]
		},
		{
			"mesh":4,
			"name":"Cylinder.004",
			"scale":[
				0.800000011920929,
				0.20000000298023224,
				0.800000011920929
			],
			"translation":[
				0,
				0.08194434642791748,
				0
			]
		},
		{
			"mesh":5,
			"name":"Cylinder.005",
			"scale":[
				1.2000000476837158,
				0.20000000298023224,
				1.2000000476837158
			],
			"translation":[
				0,
				0.8819435834884644,
				0
			]
		},
		{
			"mesh":6,
			"name":"Cylinder.006",
			"rotation":[
				0,
				0,
				1,
				7.549790836947068e-08
			],
			"scale":[
				1.2000000476837158,
				0.20000000298023224,
				1.2000000476837158
			],
			"translation":[
				0,
				-4.866469860076904,
				0
			]
		}
	],
	"materials":[
		{
			"doubleSided":true,
			"name":"Lvl1TempleBrickWindow",
			"normalTexture":{
				"index":0
			},
			"pbrMetallicRoughness":{
				"baseColorTexture":{
					"index":1
				},
				"metallicRoughnessTexture":{
					"index":2
				}
			}
		}
	],
	"meshes":[
		{
			"name":"Cylinder",
			"primitives":[
				{
					"attributes":{
						"POSITION":0,
						"NORMAL":1,
						"TEXCOORD_0":2
					},
					"indices":3,
					"material":0
				}
			]
		},
		{
			"name":"Cylinder.001",
			"primitives":[
				{
					"attributes":{
						"POSITION":4,
						"NORMAL":5,
						"TEXCOORD_0":6
					},
					"indices":7,
					"material":0
				}
			]
		},
		{
			"name":"Cylinder.002",
			"primitives":[
				{
					"attributes":{
						"POSITION":8,
						"NORMAL":9,
						"TEXCOORD_0":10
					},
					"indices":11,
					"material":0
				}
			]
		},
		{
			"name":"Cylinder.003",
			"primitives":[
				{
					"attributes":{
						"POSITION":12,
						"NORMAL":13,
						"TEXCOORD_0":14
					},
					"indices":7,
					"material":0
				}
			]
		},
		{
			"name":"Cylinder.004",
			"primitives":[
				{
					"attributes":{
						"POSITION":15,
						"NORMAL":16,
						"TEXCOORD_0":17
					},
					"indices":11,
					"material":0
				}
			]
		},
		{
			"name":"Cylinder.005",
			"primitives":[
				{
					"attributes":{
						"POSITION":18,
						"NORMAL":19,
						"TEXCOORD_0":20
					},
					"indices":7,
					"material":0
				}
			]
		},
		{
			"name":"Cylinder.006",
			"primitives":[
				{
					"attributes":{
						"POSITION":21,
						"NORMAL":22,
						"TEXCOORD_0":23
					},
					"indices":7,
					"material":0
				}
			]
		}
	],
	"textures":[
		{
			"sampler":0,
			"source":0
		},
		{
			"sampler":0,
			"source":1
		},
		{
			"sampler":0,
			"source":2
		}
	],
	"images":[
		{
			"mimeType":"image/jpeg",
			"name":"smooth-temple-blocks_normal-ogl",
			"uri":"textures/smooth-temple-blocks_normal-ogl.jpg"
		},
		{
			"mimeType":"image/jpeg",
			"name":"smooth-temple-blocks_albedo",
			"uri":"textures/smooth-temple-blocks_albedo.jpg"
		},
		{
			"mimeType":"image/jpeg",
			"name":"smooth-temple-blocks_metallic-smooth-temple-blocks_roughness",
			"uri":"textures/smooth-temple-blocks_metallic-smooth-temple-blocks_roughness.jpg"
		}
	],
	"accessors":[
		{
			"bufferView":0,
			"componentType":5126,
			"count":130,
			"max":[
				1,
				1,
				1
			],
			"min":[
				-1,
				-1,
				-1
			],
			"type":"VEC3"
		},
		{
			"bufferView":1,
			"componentType":5126,
			"count":130,
			"type":"VEC3"
		},
		{
			"bufferView":2,
			"componentType":5126,
			"count":130,
			"type":"VEC2"
		},
		{
			"bufferView":3,
			"componentType":5123,
			"count":372,
			"type":"SCALAR"
		},
		{
			"bufferView":4,
			"componentType":5126,
			"count":130,
			"max":[
				1,
				1,
				1
			],
			"min":[
				-1,
				-1,
				-1
			],
			"type":"VEC3"
		},
		{
			"bufferView":5,
			"componentType":5126,
			"count":130,
			"type":"VEC3"
		},
		{
			"bufferView":6,
			"componentType":5126,
			"count":130,
			"type":"VEC2"
		},
		{
			"bufferView":7,
			"componentType":5123,
			"count":372,
			"type":"SCALAR"
		},
		{
			"bufferView":8,
			"componentType":5126,
			"count":130,
			"max":[
				1,
				1,
				1
			],
			"min":[
				-1,
				-1,
				-1
			],
			"type":"VEC3"
		},
		{
			"bufferView":9,
			"componentType":5126,
			"count":130,
			"type":"VEC3"
		},
		{
			"bufferView":10,
			"componentType":5126,
			"count":130,
			"type":"VEC2"
		},
		{
			"bufferView":11,
			"componentType":5123,
			"count":372,
			"type":"SCALAR"
		},
		{
			"bufferView":12,
			"componentType":5126,
			"count":130,
			"max":[
				1,
				1,
				1
			],
			"min":[
				-1,
				-1,
				-1
			],
			"type":"VEC3"
		},
		{
			"bufferView":13,
			"componentType":5126,
			"count":130,
			"type":"VEC3"
		},
		{
			"bufferView":14,
			"componentType":5126,
			"count":130,
			"type":"VEC2"
		},
		{
			"bufferView":15,
			"componentType":5126,
			"count":130,
			"max":[
				1,
				1,
				1
			],
			"min":[
				-1,
				-1,
				-1
			],
			"type":"VEC3"
		},
		{
			"bufferView":16,
			"componentType":5126,
			"count":130,
			"type":"VEC3"
		},
		{
			"bufferView":17,
			"componentType":5126,
			"count":130,
			"type":"VEC2"
		},
		{
			"bufferView":18,
			"componentType":5126,
			"count":130,
			"max":[
				1,
				1,
				1
			],
			"min":[
				-1,
				-1,
				-1
			],
			"type":"VEC3"
		},
		{
			"bufferView":19,
			"componentType":5126,
			"count":130,
			"type":"VEC3"
		},
		{
			"bufferView":20,
			"componentType":5126,
			"count":130,
			"type":"VEC2"
		},
		{
			"bufferView":21,
			"componentType":5126,
			"count":130,
			"max":[
				1,
				1,
				1
			],
			"min":[
				-1,
				-1,
				-1
			],
			"type":"VEC3"
		},
		{
			"bufferView":22,
			"componentType":5126,
			"count":130,
			"type":"VEC3"
		},
		{
			"bufferView":23,
			"componentType":5126,
			"count":130,
			"type":"VEC2"
		}
	],
	"bufferViews":[
		{
			"buffer":0,
			"byteLength":1560,
			"byteOffset":0,
			"target":34962
		},
		{
			"buffer":0,
			"byteLength":1560,
			"byteOffset":1560,
			"target":34962
		},
		{
			"buffer":0,
			"byteLength":1040,
			"byteOffset":3120,
			"target":34962
		},
		{
			"buffer":0,
			"byteLength":744,
			"byteOffset":4160,
			"target":34963
		},
		{
			"buffer":0,
			"byteLength":1560,
			"byteOffset":4904,
			"target":34962
		},
		{
			"buffer":0,
			"byteLength":1560,
			"byteOffset":6464,
			"target":34962
		},
		{
			"buffer":0,
			"byteLength":1040,
			"byteOffset":8024,
			"target":34962
		},
		{
			"buffer":0,
			"byteLength":744,
			"byteOffset":9064,
			"target":34963
		},
		{
			"buffer":0,
			"byteLength":1560,
			"byteOffset":9808,
			"target":34962
		},
		{
			"buffer":0,
			"byteLength":1560,
			"byteOffset":11368,
			"target":34962
		},
		{
			"buffer":0,
			"byteLength":1040,
			"byteOffset":12928,
			"target":34962
		},
		{
			"buffer":0,
			"byteLength":744,
			"byteOffset":13968,
			"target":34963
		},
		{
			"buffer":0,
			"byteLength":1560,
			"byteOffset":14712,
			"target":34962
		},
		{
			"buffer":0,
			"byteLength":1560,
			"byteOffset":16272,
			"target":34962
		},
		{
			"buffer":0,
			"byteLength":1040,
			"byteOffset":17832,
			"target":34962
		},
		{
			"buffer":0,
			"byteLength":1560,
			"byteOffset":18872,
			"target":34962
		},
		{
			"buffer":0,
			"byteLength":1560,
			"byteOffset":20432,
			"target":34962
		},
		{
			"buffer":0,
			"byteLength":1040,
			"byteOffset":21992,
			"target":34962
		},
		{
			"buffer":0,
			"byteLength":1560,
			"byteOffset":23032,
			"target":34962
		},
		{
			"buffer":0,
			"byteLength":1560,
			"byteOffset":24592,
			"target":34962
		},
		{
			"buffer":0,
			"byteLength":1040,
			"byteOffset":26152,
			"target":34962
		},
		{
			"buffer":0,
			"byteLength":1560,
			"byteOffset":27192,
			"target":34962
		},
		{
			"buffer":0,
			"byteLength":1560,
			"byteOffset":28752,
			"target":34962
		},
		{
			"buffer":0,
			"byteLength":1040,
			"byteOffset":30312,
			"target":34962
		}
	],
	"samplers":[
		{
			"magFilter":9729,
			"minFilter":9987
		}
	],
	"buffers":[
		{
			"byteLength":31352,
			"uri":"temple.bin"
		}
	]
}
