{"asset":{"generator":"Khronos glTF Blender I/O v4.2.57","version":"2.0"},"scene":0,"scenes":[{"name":"Scene","nodes":[0]}],"nodes":[{"mesh":0,"name":"Old bowl"}],"materials":[{"doubleSided":true,"name":"bowl","pbrMetallicRoughness":{"baseColorTexture":{"index":0},"metallicFactor":0,"roughnessFactor":0.800000011920929}}],"meshes":[{"name":"Old bowl mesh","primitives":[{"attributes":{"POSITION":0,"NORMAL":1,"TEXCOORD_0":2},"indices":3,"material":0}]}],"textures":[{"sampler":0,"source":0}],"images":[{"mimeType":"image/jpeg","name":"bowl","uri":"textures/bowl.jpg"}],"accessors":[{"bufferView":0,"componentType":5126,"count":12502,"max":[0.9948025941848755,0.5859871506690979,1.0037246942520142],"min":[-0.9987941980361938,-0.5800645351409912,-0.9981457591056824],"type":"VEC3"},{"bufferView":1,"componentType":5126,"count":12502,"type":"VEC3"},{"bufferView":2,"componentType":5126,"count":12502,"type":"VEC2"},{"bufferView":3,"componentType":5123,"count":23994,"type":"SCALAR"}],"bufferViews":[{"buffer":0,"byteLength":150024,"byteOffset":0,"target":34962},{"buffer":0,"byteLength":150024,"byteOffset":150024,"target":34962},{"buffer":0,"byteLength":100016,"byteOffset":300048,"target":34962},{"buffer":0,"byteLength":47988,"byteOffset":400064,"target":34963}],"samplers":[{"magFilter":9729,"minFilter":9987}],"buffers":[{"byteLength":448052,"uri":"bowl.bin"}]}