{"asset":{"generator":"Khronos glTF Blender I/O v4.2.57","version":"2.0"},"scene":0,"scenes":[{"name":"Scene","nodes":[0]}],"nodes":[{"mesh":0,"name":"Old cup"}],"materials":[{"doubleSided":true,"name":"cup","pbrMetallicRoughness":{"baseColorTexture":{"index":0},"metallicFactor":0,"roughnessFactor":0.800000011920929}}],"meshes":[{"name":"Old cup mesh","primitives":[{"attributes":{"POSITION":0,"NORMAL":1,"TEXCOORD_0":2},"indices":3,"material":0}]}],"textures":[{"sampler":0,"source":0}],"images":[{"mimeType":"image/jpeg","name":"cup","uri":"textures/cup.jpg"}],"accessors":[{"bufferView":0,"componentType":5126,"count":10467,"max":[0.6841182112693787,1.0001519918441772,0.6775961518287659],"min":[-0.6899598836898804,-1.0034137964248657,-0.6879947185516357],"type":"VEC3"},{"bufferView":1,"componentType":5126,"count":10467,"type":"VEC3"},{"bufferView":2,"componentType":5126,"count":10467,"type":"VEC2"},{"bufferView":3,"componentType":5123,"count":23997,"type":"SCALAR"}],"bufferViews":[{"buffer":0,"byteLength":125604,"byteOffset":0,"target":34962},{"buffer":0,"byteLength":125604,"byteOffset":125604,"target":34962},{"buffer":0,"byteLength":83736,"byteOffset":251208,"target":34962},{"buffer":0,"byteLength":47994,"byteOffset":334944,"target":34963}],"samplers":[{"magFilter":9729,"minFilter":9987}],"buffers":[{"byteLength":382940,"uri":"cup.bin"}]}