{"asset":{"generator":"Khronos glTF Blender I/O v4.2.57","version":"2.0"},"scene":0,"scenes":[{"name":"Scene","nodes":[0]}],"nodes":[{"mesh":0,"name":"Old plate","rotation":[0,0,-0.6981391310691833,0.7159621119499207]}],"materials":[{"doubleSided":true,"name":"plate","pbrMetallicRoughness":{"baseColorTexture":{"index":0},"metallicFactor":0,"roughnessFactor":0.800000011920929}}],"meshes":[{"name":"Old plate mesh","primitives":[{"attributes":{"POSITION":0,"NORMAL":1,"TEXCOORD_0":2},"indices":3,"material":0}]}],"textures":[{"sampler":0,"source":0}],"images":[{"mimeType":"image/jpeg","name":"plate","uri":"textures/plate.jpg"}],"accessors":[{"bufferView":0,"componentType":5126,"count":6556,"max":[0.054562877863645554,0.998845636844635,1.0019404888153076],"min":[-0.04574795067310333,-1.0016520023345947,-1.0002638101577759],"type":"VEC3"},{"bufferView":1,"componentType":5126,"count":6556,"type":"VEC3"},{"bufferView":2,"componentType":5126,"count":6556,"type":"VEC2"},{"bufferView":3,"componentType":5123,"count":24000,"type":"SCALAR"}],"bufferViews":[{"buffer":0,"byteLength":78672,"byteOffset":0,"target":34962},{"buffer":0,"byteLength":78672,"byteOffset":78672,"target":34962},{"buffer":0,"byteLength":52448,"byteOffset":157344,"target":34962},{"buffer":0,"byteLength":48000,"byteOffset":209792,"target":34963}],"samplers":[{"magFilter":9729,"minFilter":9987}],"buffers":[{"byteLength":257792,"uri":"plate.bin"}]}