{"asset":{"generator":"Khronos glTF Blender I/O v4.2.57","version":"2.0"},"scene":0,"scenes":[{"name":"Scene","nodes":[0]}],"nodes":[{"mesh":0,"name":"Old runic vase"}],"materials":[{"doubleSided":true,"name":"vase","pbrMetallicRoughness":{"baseColorTexture":{"index":0},"metallicFactor":0,"roughnessFactor":0.800000011920929}}],"meshes":[{"name":"Old runic vase mesh","primitives":[{"attributes":{"POSITION":0,"NORMAL":1,"TEXCOORD_0":2},"indices":3,"material":0}]}],"textures":[{"sampler":0,"source":0}],"images":[{"mimeType":"image/jpeg","name":"vase","uri":"textures/vase.jpg"}],"accessors":[{"bufferView":0,"componentType":5126,"count":10652,"max":[0.698272705078125,1.0022633075714111,0.6452900767326355],"min":[-0.6646975874900818,-1.0033972263336182,-0.6520804166793823],"type":"VEC3"},{"bufferView":1,"componentType":5126,"count":10652,"type":"VEC3"},{"bufferView":2,"componentType":5126,"count":10652,"type":"VEC2"},{"bufferView":3,"componentType":5123,"count":23997,"type":"SCALAR"}],"bufferViews":[{"buffer":0,"byteLength":127824,"byteOffset":0,"target":34962},{"buffer":0,"byteLength":127824,"byteOffset":127824,"target":34962},{"buffer":0,"byteLength":85216,"byteOffset":255648,"target":34962},{"buffer":0,"byteLength":47994,"byteOffset":340864,"target":34963}],"samplers":[{"magFilter":9729,"minFilter":9987}],"buffers":[{"byteLength":388860,"uri":"vase.bin"}]}