{"accessors":[{"bufferView":0,"componentType":5126,"count":1164,"max":[0.30654841661453247,0.2951408624649048,0.2546263337135315],"min":[-0.30654841661453247,-0.0014686639187857509,-0.26289957761764526],"normalized":false,"type":"VEC3"},{"bufferView":1,"componentType":5126,"count":1164,"max":[1.0,1.0,1.0,1.0],"min":[-1.0,-0.9999576210975647,-1.0,-1.0],"normalized":false,"type":"VEC4"},{"bufferView":2,"componentType":5126,"count":1164,"max":[0.9999798536300659,1.0,1.0],"min":[-0.9999673962593079,-1.0,-0.9998319745063782],"normalized":false,"type":"VEC3"},{"bufferView":3,"componentType":5126,"count":1164,"max":[0.992868185043335,0.9976229667663574],"min":[0.0054444074630737305,0.006044864654541016],"normalized":false,"type":"VEC2"},{"bufferView":4,"componentType":5121,"count":1164,"max":[1,1,0,0],"min":[0,0,0,0],"normalized":false,"type":"VEC4"},{"bufferView":5,"componentType":5126,"count":1164,"max":[1.0,0.3333333432674408,0.0,0.0],"min":[0.6666666865348816,0.0,0.0,0.0],"normalized":false,"type":"VEC4"},{"bufferView":6,"componentType":5123,"count":2658,"max":[1163],"min":[0],"normalized":false,"type":"SCALAR"},{"bufferView":7,"componentType":5126,"count":25,"max":[0.1866232305765152,0.29026708006858826,0.14985299110412598],"min":[-0.18878066539764404,0.1834605187177658,-0.15896178781986237],"normalized":false,"type":"VEC3"},{"bufferView":8,"componentType":5126,"count":25,"max":[0.9999749064445496,0.27294057607650757,0.06726323068141937,1.0],"min":[-0.9794747829437256,-0.2872866094112396,-0.9796828627586365,-1.0],"normalized":false,"type":"VEC4"},{"bufferView":9,"componentType":5126,"count":25,"max":[0.28813955187797546,0.999223530292511,0.3298863470554352],"min":[-0.27387699484825134,0.9059717655181885,-0.25507667660713196],"normalized":false,"type":"VEC3"},{"bufferView":10,"componentType":5126,"count":25,"max":[0.23834262788295746,0.9989600777626038],"min":[0.0017739604227244854,0.8495522737503052],"normalized":false,"type":"VEC2"},{"bufferView":11,"componentType":5121,"count":25,"max":[0,1,0,0],"min":[0,1,0,0],"normalized":false,"type":"VEC4"},{"bufferView":12,"componentType":5126,"count":25,"max":[0.800000011920929,0.5,0.0,0.0],"min":[0.5,0.20000000298023224,0.0,0.0],"normalized":false,"type":"VEC4"},{"bufferView":13,"componentType":5121,"count":48,"max":[24],"min":[0],"normalized":false,"type":"SCALAR"},{"bufferView":14,"componentType":5126,"count":718,"max":[0.2633962333202362,0.30834734439849854,0.4130680561065674],"min":[-0.2633962333202362,-0.06186237931251526,-0.02453307807445526],"normalized":false,"type":"VEC3"},{"bufferView":15,"componentType":5126,"count":718,"max":[1.0,0.9999204874038696,0.9999906420707703,1.0],"min":[-1.0,-0.999930739402771,-0.9999909400939941,-1.0],"normalized":false,"type":"VEC4"},{"bufferView":16,"componentType":5126,"count":718,"max":[1.0,1.0,1.0],"min":[-1.0,-1.0,-1.0],"normalized":false,"type":"VEC3"},{"bufferView":17,"componentType":5126,"count":718,"max":[0.9932774901390076,0.8406397104263306],"min":[0.005809490568935871,0.32365673780441284],"normalized":false,"type":"VEC2"},{"bufferView":18,"componentType":5121,"count":718,"max":[2,0,0,0],"min":[2,0,0,0],"normalized":false,"type":"VEC4"},{"bufferView":19,"componentType":5126,"count":718,"max":[1.0,0.0,0.0,0.0],"min":[1.0,0.0,0.0,0.0],"normalized":false,"type":"VEC4"},{"bufferView":20,"componentType":5123,"count":2133,"max":[717],"min":[0],"normalized":false,"type":"SCALAR"},{"bufferView":21,"componentType":5126,"count":9,"max":[0.17068958282470703,0.06701746582984924,0.3144863247871399],"min":[-0.17068958282470703,-0.07773058116436005,0.06662099808454514],"normalized":false,"type":"VEC3"},{"bufferView":22,"componentType":5126,"count":9,"max":[0.9999950528144836,0.5646994709968567,0.035143960267305374,1.0],"min":[0.8244898319244385,-0.5435559153556824,-0.03648199886083603,1.0],"normalized":false,"type":"VEC4"},{"bufferView":23,"componentType":5126,"count":9,"max":[0.5655097961425781,-0.6944062113761902,0.7195764780044556],"min":[-0.5443228483200073,-0.9941357970237732,-0.5540645122528076],"normalized":false,"type":"VEC3"},{"bufferView":24,"componentType":5126,"count":9,"max":[0.22584101557731628,0.9989600777626038],"min":[0.0017739604227244854,0.8495522737503052],"normalized":false,"type":"VEC2"},{"bufferView":25,"componentType":5121,"count":9,"max":[2,0,0,0],"min":[2,0,0,0],"normalized":false,"type":"VEC4"},{"bufferView":26,"componentType":5126,"count":9,"max":[1.0,0.0,0.0,0.0],"min":[1.0,0.0,0.0,0.0],"normalized":false,"type":"VEC4"},{"bufferView":27,"componentType":5121,"count":24,"max":[8],"min":[0],"normalized":false,"type":"SCALAR"}],"asset":{"generator":"Godot Engine v4.8.dev5.mono.official@9552dfb6859a1aaba1e570b8e0ef5c599b830f19","version":"2.0"},"bufferViews":[{"buffer":0,"byteLength":13968,"byteStride":12,"target":34962},{"buffer":0,"byteLength":18624,"byteOffset":13968,"byteStride":16,"target":34962},{"buffer":0,"byteLength":13968,"byteOffset":32592,"byteStride":12,"target":34962},{"buffer":0,"byteLength":9312,"byteOffset":46560,"byteStride":8,"target":34962},{"buffer":0,"byteLength":4656,"byteOffset":55872,"byteStride":4,"target":34962},{"buffer":0,"byteLength":18624,"byteOffset":60528,"byteStride":16,"target":34962},{"buffer":0,"byteLength":5316,"byteOffset":79152,"target":34963},{"buffer":0,"byteLength":300,"byteOffset":84468,"byteStride":12,"target":34962},{"buffer":0,"byteLength":400,"byteOffset":84768,"byteStride":16,"target":34962},{"buffer":0,"byteLength":300,"byteOffset":85168,"byteStride":12,"target":34962},{"buffer":0,"byteLength":200,"byteOffset":85468,"byteStride":8,"target":34962},{"buffer":0,"byteLength":100,"byteOffset":85668,"byteStride":4,"target":34962},{"buffer":0,"byteLength":400,"byteOffset":85768,"byteStride":16,"target":34962},{"buffer":0,"byteLength":48,"byteOffset":86168,"target":34963},{"buffer":0,"byteLength":8616,"byteOffset":86216,"byteStride":12,"target":34962},{"buffer":0,"byteLength":11488,"byteOffset":94832,"byteStride":16,"target":34962},{"buffer":0,"byteLength":8616,"byteOffset":106320,"byteStride":12,"target":34962},{"buffer":0,"byteLength":5744,"byteOffset":114936,"byteStride":8,"target":34962},{"buffer":0,"byteLength":2872,"byteOffset":120680,"byteStride":4,"target":34962},{"buffer":0,"byteLength":11488,"byteOffset":123552,"byteStride":16,"target":34962},{"buffer":0,"byteLength":4266,"byteOffset":135040,"target":34963},{"buffer":0,"byteLength":108,"byteOffset":139308,"byteStride":12,"target":34962},{"buffer":0,"byteLength":144,"byteOffset":139416,"byteStride":16,"target":34962},{"buffer":0,"byteLength":108,"byteOffset":139560,"byteStride":12,"target":34962},{"buffer":0,"byteLength":72,"byteOffset":139668,"byteStride":8,"target":34962},{"buffer":0,"byteLength":36,"byteOffset":139740,"byteStride":4,"target":34962},{"buffer":0,"byteLength":144,"byteOffset":139776,"byteStride":16,"target":34962},{"buffer":0,"byteLength":24,"byteOffset":139920,"target":34963}],"buffers":[{"byteLength":139944,"uri":"epic0.bin"}],"extensionsUsed":["GODOT_single_root"],"images":[{"name":"chest_epic_col","uri":"textures%2Fchest_epic_col.png"},{"name":"chest_epic_orm","uri":"textures%2Fchest_epic_orm.png"},{"name":"chest_epic_glow","uri":"textures%2Fchest_epic_glow.png"}],"materials":[{"emissiveFactor":[1.0,1.0,1.0],"emissiveTexture":{"index":2},"name":"chest_epic2","occlusionTexture":{"index":1},"pbrMetallicRoughness":{"baseColorFactor":[1.0,1.0,1.0,1.0],"baseColorTexture":{"index":0},"metallicFactor":1.0,"metallicRoughnessTexture":{"index":1},"roughnessFactor":1.0}},{"alphaMode":"BLEND","doubleSided":true,"emissiveFactor":[1.0,1.0,1.0],"emissiveTexture":{"index":5},"name":"chest_epic_cutout","occlusionTexture":{"index":4},"pbrMetallicRoughness":{"baseColorFactor":[1.0,1.0,1.0,1.0],"baseColorTexture":{"index":3},"metallicFactor":1.0,"metallicRoughnessTexture":{"index":4},"roughnessFactor":1.0}}],"meshes":[{"primitives":[{"attributes":{"JOINTS_0":4,"NORMAL":2,"POSITION":0,"TANGENT":1,"TEXCOORD_0":3,"WEIGHTS_0":5},"indices":6,"material":0,"mode":4},{"attributes":{"JOINTS_0":11,"NORMAL":9,"POSITION":7,"TANGENT":8,"TEXCOORD_0":10,"WEIGHTS_0":12},"indices":13,"material":1,"mode":4}]},{"primitives":[{"attributes":{"JOINTS_0":18,"NORMAL":16,"POSITION":14,"TANGENT":15,"TEXCOORD_0":17,"WEIGHTS_0":19},"indices":20,"material":0,"mode":4},{"attributes":{"JOINTS_0":25,"NORMAL":23,"POSITION":21,"TANGENT":22,"TEXCOORD_0":24,"WEIGHTS_0":26},"indices":27,"material":1,"mode":4}]}],"nodes":[{"children":[1,2],"name":"chest_epic"},{"mesh":0,"name":"base"},{"children":[3],"name":"lid_pivot","translation":[0.0,0.2963266968727112,-0.18526344001293182]},{"mesh":1,"name":"lid"}],"samplers":[{"magFilter":9729,"minFilter":9987,"wrapS":10497,"wrapT":10497}],"scene":0,"scenes":[{"nodes":[0]}],"textures":[{"sampler":0,"source":0},{"sampler":0,"source":1},{"sampler":0,"source":2},{"sampler":0,"source":0},{"sampler":0,"source":1},{"sampler":0,"source":2}]}