{"accessors":[{"bufferView":0,"componentType":5126,"count":757,"max":[0.27780666947364807,0.2704089879989624,0.21822471916675568],"min":[-0.27780666947364807,-0.0012919999426230788,-0.2251543402671814],"normalized":false,"type":"VEC3"},{"bufferView":1,"componentType":5126,"count":757,"max":[1.0,0.9813970923423767,1.0,1.0],"min":[-1.0,-0.9813821911811829,-1.0,-1.0],"normalized":false,"type":"VEC4"},{"bufferView":2,"componentType":5126,"count":757,"max":[1.0,1.0,0.999998152256012],"min":[-1.0,-1.0,-0.999998152256012],"normalized":false,"type":"VEC3"},{"bufferView":3,"componentType":5126,"count":757,"max":[0.9965941905975342,0.9987326860427856],"min":[0.0029956838116049767,0.00393909215927124],"normalized":false,"type":"VEC2"},{"bufferView":4,"componentType":5121,"count":757,"max":[0,1,0,0],"min":[0,0,0,0],"normalized":false,"type":"VEC4"},{"bufferView":5,"componentType":5126,"count":757,"max":[1.0,0.5,0.0,0.0],"min":[0.5,0.0,0.0,0.0],"normalized":false,"type":"VEC4"},{"bufferView":6,"componentType":5123,"count":2010,"max":[756],"min":[0],"normalized":false,"type":"SCALAR"},{"bufferView":7,"componentType":5126,"count":25,"max":[0.17068958282470703,0.1902860701084137,0.12815004587173462],"min":[-0.17068946361541748,0.08681806921958923,-0.12519046664237976],"normalized":false,"type":"VEC3"},{"bufferView":8,"componentType":5126,"count":25,"max":[0.9999903440475464,0.4060561954975128,0.25946423411369324,1.0],"min":[-0.8848403096199036,-0.40607649087905884,-0.8777511119842529,-1.0],"normalized":false,"type":"VEC4"},{"bufferView":9,"componentType":5126,"count":25,"max":[0.4750193655490875,0.9986361265182495,0.48084044456481934],"min":[-0.4660126268863678,0.7370305061340332,-0.4806761145591736],"normalized":false,"type":"VEC3"},{"bufferView":10,"componentType":5126,"count":25,"max":[0.24056202173233032,0.9945970773696899],"min":[0.005687663331627846,0.85190349817276],"normalized":false,"type":"VEC2"},{"bufferView":11,"componentType":5121,"count":25,"max":[0,1,0,0],"min":[0,0,0,0],"normalized":false,"type":"VEC4"},{"bufferView":12,"componentType":5126,"count":25,"max":[1.0,0.5,0.0,0.0],"min":[0.5,0.0,0.0,0.0],"normalized":false,"type":"VEC4"},{"bufferView":13,"componentType":5121,"count":48,"max":[24],"min":[0],"normalized":false,"type":"SCALAR"},{"bufferView":14,"componentType":5126,"count":471,"max":[0.20448999106884003,0.23540997505187988,0.35563546419143677],"min":[-0.206386998295784,-0.02524811029434204,-0.020800068974494934],"normalized":false,"type":"VEC3"},{"bufferView":15,"componentType":5126,"count":471,"max":[1.0,0.999739408493042,0.9999842643737793,1.0],"min":[-1.0,-0.9998221397399902,-0.9999883770942688,-1.0],"normalized":false,"type":"VEC4"},{"bufferView":16,"componentType":5126,"count":471,"max":[1.0,1.0,1.0],"min":[-1.0,-1.0,-1.0],"normalized":false,"type":"VEC3"},{"bufferView":17,"componentType":5126,"count":471,"max":[1.0024945735931396,0.8412670493125916],"min":[0.0037665367126464844,0.22967451810836792],"normalized":false,"type":"VEC2"},{"bufferView":18,"componentType":5121,"count":471,"max":[2,3,0,0],"min":[2,0,0,0],"normalized":false,"type":"VEC4"},{"bufferView":19,"componentType":5126,"count":471,"max":[1.0,0.5,0.0,0.0],"min":[0.5,0.0,0.0,0.0],"normalized":false,"type":"VEC4"},{"bufferView":20,"componentType":5123,"count":1062,"max":[470],"min":[0],"normalized":false,"type":"SCALAR"},{"bufferView":21,"componentType":5126,"count":9,"max":[0.17068958282470703,0.012375235557556152,0.27921953797340393],"min":[-0.17068946361541748,-0.04729197919368744,0.031354211270809174],"normalized":false,"type":"VEC3"},{"bufferView":22,"componentType":5126,"count":9,"max":[0.9999904036521912,0.16978520154953003,0.00023007304116617888,1.0],"min":[0.9854811429977417,-0.1609581559896469,-0.0010890105040743947,1.0],"normalized":false,"type":"VEC4"},{"bufferView":23,"componentType":5126,"count":9,"max":[0.16961239278316498,-0.9546253085136414,0.2517634928226471],"min":[-0.16079314053058624,-0.9991363286972046,-0.041311848908662796],"normalized":false,"type":"VEC3"},{"bufferView":24,"componentType":5126,"count":9,"max":[0.22306165099143982,0.9947910308837891],"min":[0.005479782819747925,0.8514052033424377],"normalized":false,"type":"VEC2"},{"bufferView":25,"componentType":5121,"count":9,"max":[2,3,0,0],"min":[2,0,0,0],"normalized":false,"type":"VEC4"},{"bufferView":26,"componentType":5126,"count":9,"max":[1.0,0.5,0.0,0.0],"min":[0.5,0.0,0.0,0.0],"normalized":false,"type":"VEC4"},{"bufferView":27,"componentType":5121,"count":24,"max":[8],"min":[0],"normalized":false,"type":"SCALAR"}],"asset":{"generator":"Godot Engine v4.8.dev5.mono.official@9552dfb6859a1aaba1e570b8e0ef5c599b830f19","version":"2.0"},"bufferViews":[{"buffer":0,"byteLength":9084,"byteStride":12,"target":34962},{"buffer":0,"byteLength":12112,"byteOffset":9084,"byteStride":16,"target":34962},{"buffer":0,"byteLength":9084,"byteOffset":21196,"byteStride":12,"target":34962},{"buffer":0,"byteLength":6056,"byteOffset":30280,"byteStride":8,"target":34962},{"buffer":0,"byteLength":3028,"byteOffset":36336,"byteStride":4,"target":34962},{"buffer":0,"byteLength":12112,"byteOffset":39364,"byteStride":16,"target":34962},{"buffer":0,"byteLength":4020,"byteOffset":51476,"target":34963},{"buffer":0,"byteLength":300,"byteOffset":55496,"byteStride":12,"target":34962},{"buffer":0,"byteLength":400,"byteOffset":55796,"byteStride":16,"target":34962},{"buffer":0,"byteLength":300,"byteOffset":56196,"byteStride":12,"target":34962},{"buffer":0,"byteLength":200,"byteOffset":56496,"byteStride":8,"target":34962},{"buffer":0,"byteLength":100,"byteOffset":56696,"byteStride":4,"target":34962},{"buffer":0,"byteLength":400,"byteOffset":56796,"byteStride":16,"target":34962},{"buffer":0,"byteLength":48,"byteOffset":57196,"target":34963},{"buffer":0,"byteLength":5652,"byteOffset":57244,"byteStride":12,"target":34962},{"buffer":0,"byteLength":7536,"byteOffset":62896,"byteStride":16,"target":34962},{"buffer":0,"byteLength":5652,"byteOffset":70432,"byteStride":12,"target":34962},{"buffer":0,"byteLength":3768,"byteOffset":76084,"byteStride":8,"target":34962},{"buffer":0,"byteLength":1884,"byteOffset":79852,"byteStride":4,"target":34962},{"buffer":0,"byteLength":7536,"byteOffset":81736,"byteStride":16,"target":34962},{"buffer":0,"byteLength":2124,"byteOffset":89272,"target":34963},{"buffer":0,"byteLength":108,"byteOffset":91396,"byteStride":12,"target":34962},{"buffer":0,"byteLength":144,"byteOffset":91504,"byteStride":16,"target":34962},{"buffer":0,"byteLength":108,"byteOffset":91648,"byteStride":12,"target":34962},{"buffer":0,"byteLength":72,"byteOffset":91756,"byteStride":8,"target":34962},{"buffer":0,"byteLength":36,"byteOffset":91828,"byteStride":4,"target":34962},{"buffer":0,"byteLength":144,"byteOffset":91864,"byteStride":16,"target":34962},{"buffer":0,"byteLength":24,"byteOffset":92008,"target":34963}],"buffers":[{"byteLength":92032,"uri":"large0.bin"}],"extensionsUsed":["GODOT_single_root"],"images":[{"name":"chest_large_col","uri":"textures%2Fchest_large_col.png"},{"name":"chest_large_orm","uri":"textures%2Fchest_large_orm.png"},{"name":"chest_large_glow","uri":"textures%2Fchest_large_glow.png"}],"materials":[{"emissiveFactor":[1.0,1.0,1.0],"emissiveTexture":{"index":2},"name":"chest_large2","occlusionTexture":{"index":1},"pbrMetallicRoughness":{"baseColorFactor":[1.0,1.0,1.0,1.0],"baseColorTexture":{"index":0},"metallicFactor":1.0,"metallicRoughnessTexture":{"index":1},"roughnessFactor":1.0}},{"alphaMode":"BLEND","doubleSided":true,"emissiveFactor":[1.0,1.0,1.0],"emissiveTexture":{"index":5},"name":"chest_large_cutout","occlusionTexture":{"index":4},"pbrMetallicRoughness":{"baseColorFactor":[1.0,1.0,1.0,1.0],"baseColorTexture":{"index":3},"metallicFactor":1.0,"metallicRoughnessTexture":{"index":4},"roughnessFactor":1.0}}],"meshes":[{"primitives":[{"attributes":{"JOINTS_0":4,"NORMAL":2,"POSITION":0,"TANGENT":1,"TEXCOORD_0":3,"WEIGHTS_0":5},"indices":6,"material":0,"mode":4},{"attributes":{"JOINTS_0":11,"NORMAL":9,"POSITION":7,"TANGENT":8,"TEXCOORD_0":10,"WEIGHTS_0":12},"indices":13,"material":1,"mode":4}]},{"primitives":[{"attributes":{"JOINTS_0":18,"NORMAL":16,"POSITION":14,"TANGENT":15,"TEXCOORD_0":17,"WEIGHTS_0":19},"indices":20,"material":0,"mode":4},{"attributes":{"JOINTS_0":25,"NORMAL":23,"POSITION":21,"TANGENT":22,"TEXCOORD_0":24,"WEIGHTS_0":26},"indices":27,"material":1,"mode":4}]}],"nodes":[{"children":[1,2],"name":"chest_large"},{"mesh":0,"name":"base"},{"children":[3],"name":"lid_pivot","translation":[0.0,0.2658880949020386,-0.14999665319919586]},{"mesh":1,"name":"lid"}],"samplers":[{"magFilter":9729,"minFilter":9987,"wrapS":10497,"wrapT":10497}],"scene":0,"scenes":[{"nodes":[0]}],"textures":[{"sampler":0,"source":0},{"sampler":0,"source":1},{"sampler":0,"source":2},{"sampler":0,"source":0},{"sampler":0,"source":1},{"sampler":0,"source":2}]}