{"accessors":[{"bufferView":0,"componentType":5126,"count":632,"max":[0.24077801406383514,0.21178600192070007,0.20571590960025787],"min":[-0.24458065629005432,-0.0048642754554748535,-0.18959017097949982],"normalized":false,"type":"VEC3"},{"bufferView":1,"componentType":5126,"count":632,"max":[1.0,0.9810550212860107,1.0,1.0],"min":[-1.0,-1.0,-1.0,-1.0],"normalized":false,"type":"VEC4"},{"bufferView":2,"componentType":5126,"count":632,"max":[1.0,1.0,1.0],"min":[-1.0,-1.0,-1.0],"normalized":false,"type":"VEC3"},{"bufferView":3,"componentType":5126,"count":632,"max":[0.9978504180908203,0.8311725854873657],"min":[0.0031108856201171875,0.003989160060882568],"normalized":false,"type":"VEC2"},{"bufferView":4,"componentType":5121,"count":632,"max":[1,1,0,0],"min":[0,0,0,0],"normalized":false,"type":"VEC4"},{"bufferView":5,"componentType":5126,"count":632,"max":[1.0,0.5,0.0,0.0],"min":[0.5,0.0,0.0,0.0],"normalized":false,"type":"VEC4"},{"bufferView":6,"componentType":5123,"count":1644,"max":[631],"min":[0],"normalized":false,"type":"SCALAR"},{"bufferView":7,"componentType":5126,"count":25,"max":[0.17074094712734222,0.1902860701084137,0.12815004587173462],"min":[-0.17063815891742706,0.136509507894516,-0.12519046664237976],"normalized":false,"type":"VEC3"},{"bufferView":8,"componentType":5126,"count":25,"max":[0.9999903440475464,0.1589145064353943,0.025469809770584106,1.0],"min":[-0.9999929666519165,-0.16770832240581512,-0.9999931454658508,-1.0],"normalized":false,"type":"VEC4"},{"bufferView":9,"componentType":5126,"count":25,"max":[0.16965216398239136,0.9999859929084778,0.1986551135778427],"min":[-0.1608184427022934,0.9658454656600952,-0.095662422478199],"normalized":false,"type":"VEC3"},{"bufferView":10,"componentType":5126,"count":25,"max":[0.3167687952518463,0.9895254373550415],"min":[0.014232777059078217,0.8043017387390137],"normalized":false,"type":"VEC2"},{"bufferView":11,"componentType":5121,"count":25,"max":[1,1,0,0],"min":[0,0,0,0],"normalized":false,"type":"VEC4"},{"bufferView":12,"componentType":5126,"count":25,"max":[1.0,0.3333333432674408,0.0,0.0],"min":[0.6666666865348816,0.0,0.0,0.0],"normalized":false,"type":"VEC4"},{"bufferView":13,"componentType":5121,"count":48,"max":[24],"min":[0],"normalized":false,"type":"SCALAR"},{"bufferView":14,"componentType":5126,"count":398,"max":[0.20448999106884003,0.17089560627937317,0.36217832565307617],"min":[-0.206386998295784,-0.027913212776184082,-0.021750733256340027],"normalized":false,"type":"VEC3"},{"bufferView":15,"componentType":5126,"count":398,"max":[1.0,0.9989539980888367,0.9999859929084778,1.0],"min":[-1.0,-0.9983254671096802,-0.9999843835830688,-1.0],"normalized":false,"type":"VEC4"},{"bufferView":16,"componentType":5126,"count":398,"max":[1.0,1.0,1.0],"min":[-1.0,-1.0,-1.0],"normalized":false,"type":"VEC3"},{"bufferView":17,"componentType":5126,"count":398,"max":[0.9990785121917725,0.8169485926628113],"min":[0.004592418670654297,0.17979955673217773],"normalized":false,"type":"VEC2"},{"bufferView":18,"componentType":5121,"count":398,"max":[2,3,0,0],"min":[2,0,0,0],"normalized":false,"type":"VEC4"},{"bufferView":19,"componentType":5126,"count":398,"max":[1.0,0.4117620289325714,0.0,0.0],"min":[0.588238000869751,0.0,0.0,0.0],"normalized":false,"type":"VEC4"},{"bufferView":20,"componentType":5123,"count":831,"max":[397],"min":[0],"normalized":false,"type":"SCALAR"},{"bufferView":21,"componentType":5126,"count":9,"max":[0.17074094712734222,0.06811833381652832,0.28219765424728394],"min":[-0.17063815891742706,0.008451119065284729,0.03433234244585037],"normalized":false,"type":"VEC3"},{"bufferView":22,"componentType":5126,"count":9,"max":[0.9999904036521912,0.16978520154953003,0.00023007304116617888,1.0],"min":[0.9854811429977417,-0.1609581559896469,-0.0010890105040743947,1.0],"normalized":false,"type":"VEC4"},{"bufferView":23,"componentType":5126,"count":9,"max":[0.16961239278316498,-0.9546253085136414,0.2517634928226471],"min":[-0.16079314053058624,-0.9991363286972046,-0.041311848908662796],"normalized":false,"type":"VEC3"},{"bufferView":24,"componentType":5126,"count":9,"max":[0.2953019142150879,0.9895254373550415],"min":[0.014232777059078217,0.8043017387390137],"normalized":false,"type":"VEC2"},{"bufferView":25,"componentType":5121,"count":9,"max":[2,3,0,0],"min":[2,0,0,0],"normalized":false,"type":"VEC4"},{"bufferView":26,"componentType":5126,"count":9,"max":[1.0,0.4117620289325714,0.0,0.0],"min":[0.588238000869751,0.0,0.0,0.0],"normalized":false,"type":"VEC4"},{"bufferView":27,"componentType":5121,"count":24,"max":[8],"min":[0],"normalized":false,"type":"SCALAR"}],"asset":{"generator":"Godot Engine v4.8.dev5.mono.official@9552dfb6859a1aaba1e570b8e0ef5c599b830f19","version":"2.0"},"bufferViews":[{"buffer":0,"byteLength":7584,"byteStride":12,"target":34962},{"buffer":0,"byteLength":10112,"byteOffset":7584,"byteStride":16,"target":34962},{"buffer":0,"byteLength":7584,"byteOffset":17696,"byteStride":12,"target":34962},{"buffer":0,"byteLength":5056,"byteOffset":25280,"byteStride":8,"target":34962},{"buffer":0,"byteLength":2528,"byteOffset":30336,"byteStride":4,"target":34962},{"buffer":0,"byteLength":10112,"byteOffset":32864,"byteStride":16,"target":34962},{"buffer":0,"byteLength":3288,"byteOffset":42976,"target":34963},{"buffer":0,"byteLength":300,"byteOffset":46264,"byteStride":12,"target":34962},{"buffer":0,"byteLength":400,"byteOffset":46564,"byteStride":16,"target":34962},{"buffer":0,"byteLength":300,"byteOffset":46964,"byteStride":12,"target":34962},{"buffer":0,"byteLength":200,"byteOffset":47264,"byteStride":8,"target":34962},{"buffer":0,"byteLength":100,"byteOffset":47464,"byteStride":4,"target":34962},{"buffer":0,"byteLength":400,"byteOffset":47564,"byteStride":16,"target":34962},{"buffer":0,"byteLength":48,"byteOffset":47964,"target":34963},{"buffer":0,"byteLength":4776,"byteOffset":48012,"byteStride":12,"target":34962},{"buffer":0,"byteLength":6368,"byteOffset":52788,"byteStride":16,"target":34962},{"buffer":0,"byteLength":4776,"byteOffset":59156,"byteStride":12,"target":34962},{"buffer":0,"byteLength":3184,"byteOffset":63932,"byteStride":8,"target":34962},{"buffer":0,"byteLength":1592,"byteOffset":67116,"byteStride":4,"target":34962},{"buffer":0,"byteLength":6368,"byteOffset":68708,"byteStride":16,"target":34962},{"buffer":0,"byteLength":1662,"byteOffset":75076,"target":34963},{"buffer":0,"byteLength":108,"byteOffset":76740,"byteStride":12,"target":34962},{"buffer":0,"byteLength":144,"byteOffset":76848,"byteStride":16,"target":34962},{"buffer":0,"byteLength":108,"byteOffset":76992,"byteStride":12,"target":34962},{"buffer":0,"byteLength":72,"byteOffset":77100,"byteStride":8,"target":34962},{"buffer":0,"byteLength":36,"byteOffset":77172,"byteStride":4,"target":34962},{"buffer":0,"byteLength":144,"byteOffset":77208,"byteStride":16,"target":34962},{"buffer":0,"byteLength":24,"byteOffset":77352,"target":34963}],"buffers":[{"byteLength":77376,"uri":"medium0.bin"}],"extensionsUsed":["GODOT_single_root"],"images":[{"name":"chest_medium_col","uri":"textures%2Fchest_medium_col.png"},{"name":"chest_medium_orm","uri":"textures%2Fchest_medium_orm.png"},{"name":"chest_medium_glow","uri":"textures%2Fchest_medium_glow.png"}],"materials":[{"emissiveFactor":[1.0,1.0,1.0],"emissiveTexture":{"index":2},"name":"chest_medium2","occlusionTexture":{"index":1},"pbrMetallicRoughness":{"baseColorFactor":[1.0,1.0,1.0,1.0],"baseColorTexture":{"index":0},"metallicFactor":1.0,"metallicRoughnessTexture":{"index":1},"roughnessFactor":1.0}},{"alphaMode":"BLEND","doubleSided":true,"emissiveFactor":[1.0,1.0,1.0],"emissiveTexture":{"index":5},"name":"chest_medium_cutout","occlusionTexture":{"index":4},"pbrMetallicRoughness":{"baseColorFactor":[1.0,1.0,1.0,1.0],"baseColorTexture":{"index":3},"metallicFactor":1.0,"metallicRoughnessTexture":{"index":4},"roughnessFactor":1.0}}],"meshes":[{"primitives":[{"attributes":{"JOINTS_0":4,"NORMAL":2,"POSITION":0,"TANGENT":1,"TEXCOORD_0":3,"WEIGHTS_0":5},"indices":6,"material":0,"mode":4},{"attributes":{"JOINTS_0":11,"NORMAL":9,"POSITION":7,"TANGENT":8,"TEXCOORD_0":10,"WEIGHTS_0":12},"indices":13,"material":1,"mode":4}]},{"primitives":[{"attributes":{"JOINTS_0":18,"NORMAL":16,"POSITION":14,"TANGENT":15,"TEXCOORD_0":17,"WEIGHTS_0":19},"indices":20,"material":0,"mode":4},{"attributes":{"JOINTS_0":25,"NORMAL":23,"POSITION":21,"TANGENT":22,"TEXCOORD_0":24,"WEIGHTS_0":26},"indices":27,"material":1,"mode":4}]}],"nodes":[{"children":[1,2],"name":"chest_medium"},{"mesh":0,"name":"base"},{"children":[3],"name":"lid_pivot","translation":[0.0,0.2101449966430664,-0.15297478437423706]},{"mesh":1,"name":"lid"}],"samplers":[{"magFilter":9729,"minFilter":9987,"wrapS":10497,"wrapT":10497}],"scene":0,"scenes":[{"nodes":[0]}],"textures":[{"sampler":0,"source":0},{"sampler":0,"source":1},{"sampler":0,"source":2},{"sampler":0,"source":0},{"sampler":0,"source":1},{"sampler":0,"source":2}]}