{"accessors":[{"bufferView":0,"componentType":5126,"count":279,"max":[0.21377268433570862,0.19014036655426025,0.15619057416915894],"min":[-0.21377268433570862,-0.00014433229807764292,-0.15619057416915894],"normalized":false,"type":"VEC3"},{"bufferView":1,"componentType":5126,"count":279,"max":[1.0,0.9999951720237732,1.0,1.0],"min":[-1.0,-0.6149513125419617,-1.0,-1.0],"normalized":false,"type":"VEC4"},{"bufferView":2,"componentType":5126,"count":279,"max":[0.9998103380203247,1.0,0.9999845623970032],"min":[-0.9998109340667725,-1.0,-0.999984860420227],"normalized":false,"type":"VEC3"},{"bufferView":3,"componentType":5126,"count":279,"max":[0.9986759424209595,0.7953241467475891],"min":[0.00414121150970459,0.0040891170501708984],"normalized":false,"type":"VEC2"},{"bufferView":4,"componentType":5121,"count":279,"max":[0,1,0,0],"min":[0,0,0,0],"normalized":false,"type":"VEC4"},{"bufferView":5,"componentType":5126,"count":279,"max":[1.0,0.5,0.0,0.0],"min":[0.5,0.0,0.0,0.0],"normalized":false,"type":"VEC4"},{"bufferView":6,"componentType":5123,"count":696,"max":[278],"min":[0],"normalized":false,"type":"SCALAR"},{"bufferView":7,"componentType":5126,"count":25,"max":[0.13323336839675903,0.1778891384601593,0.10908488184213638],"min":[-0.12698745727539063,0.05680233985185623,-0.1216127797961235],"normalized":false,"type":"VEC3"},{"bufferView":8,"componentType":5126,"count":25,"max":[0.9999902844429016,0.588627815246582,0.038393184542655945,1.0],"min":[-0.9911392331123352,-0.609822154045105,-0.9913051724433899,-1.0],"normalized":false,"type":"VEC4"},{"bufferView":9,"componentType":5126,"count":25,"max":[0.6103224754333496,0.9989925026893616,0.6291133761405945],"min":[-0.5891517400741577,0.7772968411445618,-0.5773651599884033],"normalized":false,"type":"VEC3"},{"bufferView":10,"componentType":5126,"count":25,"max":[0.311099112033844,0.9936902523040771],"min":[0.009026771411299706,0.8084665536880493],"normalized":false,"type":"VEC2"},{"bufferView":11,"componentType":5121,"count":25,"max":[0,1,0,0],"min":[0,1,0,0],"normalized":false,"type":"VEC4"},{"bufferView":12,"componentType":5126,"count":25,"max":[0.5,0.5,0.0,0.0],"min":[0.5,0.5,0.0,0.0],"normalized":false,"type":"VEC4"},{"bufferView":13,"componentType":5121,"count":48,"max":[24],"min":[0],"normalized":false,"type":"SCALAR"},{"bufferView":14,"componentType":5126,"count":223,"max":[0.1609082967042923,0.13340623676776886,0.26725175976753235],"min":[-0.16481228172779083,-0.01835787296295166,-0.015861481428146362],"normalized":false,"type":"VEC3"},{"bufferView":15,"componentType":5126,"count":223,"max":[1.0,0.9876804351806641,0.9999960660934448,1.0],"min":[-1.0,-0.9836360216140747,-0.9999999403953552,-1.0],"normalized":false,"type":"VEC4"},{"bufferView":16,"componentType":5126,"count":223,"max":[1.0,1.0,1.0],"min":[-1.0,-1.0,-1.0],"normalized":false,"type":"VEC3"},{"bufferView":17,"componentType":5126,"count":223,"max":[0.9968979358673096,0.7665644884109497],"min":[0.004316449165344238,0.3937908411026001],"normalized":false,"type":"VEC2"},{"bufferView":18,"componentType":5121,"count":223,"max":[2,3,0,0],"min":[2,0,0,0],"normalized":false,"type":"VEC4"},{"bufferView":19,"componentType":5126,"count":223,"max":[1.0,0.5,0.0,0.0],"min":[0.5,0.0,0.0,0.0],"normalized":false,"type":"VEC4"},{"bufferView":20,"componentType":5121,"count":558,"max":[222],"min":[0],"normalized":false,"type":"SCALAR"}],"asset":{"generator":"Godot Engine v4.8.dev5.mono.official@9552dfb6859a1aaba1e570b8e0ef5c599b830f19","version":"2.0"},"bufferViews":[{"buffer":0,"byteLength":3348,"byteStride":12,"target":34962},{"buffer":0,"byteLength":4464,"byteOffset":3348,"byteStride":16,"target":34962},{"buffer":0,"byteLength":3348,"byteOffset":7812,"byteStride":12,"target":34962},{"buffer":0,"byteLength":2232,"byteOffset":11160,"byteStride":8,"target":34962},{"buffer":0,"byteLength":1116,"byteOffset":13392,"byteStride":4,"target":34962},{"buffer":0,"byteLength":4464,"byteOffset":14508,"byteStride":16,"target":34962},{"buffer":0,"byteLength":1392,"byteOffset":18972,"target":34963},{"buffer":0,"byteLength":300,"byteOffset":20364,"byteStride":12,"target":34962},{"buffer":0,"byteLength":400,"byteOffset":20664,"byteStride":16,"target":34962},{"buffer":0,"byteLength":300,"byteOffset":21064,"byteStride":12,"target":34962},{"buffer":0,"byteLength":200,"byteOffset":21364,"byteStride":8,"target":34962},{"buffer":0,"byteLength":100,"byteOffset":21564,"byteStride":4,"target":34962},{"buffer":0,"byteLength":400,"byteOffset":21664,"byteStride":16,"target":34962},{"buffer":0,"byteLength":48,"byteOffset":22064,"target":34963},{"buffer":0,"byteLength":2676,"byteOffset":22112,"byteStride":12,"target":34962},{"buffer":0,"byteLength":3568,"byteOffset":24788,"byteStride":16,"target":34962},{"buffer":0,"byteLength":2676,"byteOffset":28356,"byteStride":12,"target":34962},{"buffer":0,"byteLength":1784,"byteOffset":31032,"byteStride":8,"target":34962},{"buffer":0,"byteLength":892,"byteOffset":32816,"byteStride":4,"target":34962},{"buffer":0,"byteLength":3568,"byteOffset":33708,"byteStride":16,"target":34962},{"buffer":0,"byteLength":558,"byteOffset":37276,"target":34963}],"buffers":[{"byteLength":37834,"uri":"small0.bin"}],"extensionsUsed":["GODOT_single_root"],"images":[{"name":"chest_small_col","uri":"textures%2Fchest_small_col.png"},{"name":"chest_small_orm","uri":"textures%2Fchest_small_orm.png"},{"name":"chest_small_glow","uri":"textures%2Fchest_small_glow.png"}],"materials":[{"emissiveFactor":[1.0,1.0,1.0],"emissiveTexture":{"index":2},"name":"chest_small2","occlusionTexture":{"index":1},"pbrMetallicRoughness":{"baseColorFactor":[1.0,1.0,1.0,1.0],"baseColorTexture":{"index":0},"metallicFactor":1.0,"metallicRoughnessTexture":{"index":1},"roughnessFactor":1.0}},{"alphaMode":"BLEND","doubleSided":true,"emissiveFactor":[1.0,1.0,1.0],"emissiveTexture":{"index":5},"name":"chest_small_cutout","occlusionTexture":{"index":4},"pbrMetallicRoughness":{"baseColorFactor":[1.0,1.0,1.0,1.0],"baseColorTexture":{"index":3},"metallicFactor":1.0,"metallicRoughnessTexture":{"index":4},"roughnessFactor":1.0}}],"meshes":[{"primitives":[{"attributes":{"JOINTS_0":4,"NORMAL":2,"POSITION":0,"TANGENT":1,"TEXCOORD_0":3,"TEXCOORD_1":3,"WEIGHTS_0":5},"indices":6,"material":0,"mode":4},{"attributes":{"JOINTS_0":11,"NORMAL":9,"POSITION":7,"TANGENT":8,"TEXCOORD_0":10,"TEXCOORD_1":10,"WEIGHTS_0":12},"indices":13,"material":1,"mode":4}]},{"primitives":[{"attributes":{"JOINTS_0":18,"NORMAL":16,"POSITION":14,"TANGENT":15,"TEXCOORD_0":17,"TEXCOORD_1":17,"WEIGHTS_0":19},"indices":20,"material":0,"mode":4}]}],"nodes":[{"children":[1,2],"name":"chest_small"},{"mesh":0,"name":"base"},{"children":[3],"name":"lid_pivot","translation":[0.0,0.19035117328166962,-0.13654591143131256]},{"mesh":1,"name":"lid"}],"samplers":[{"magFilter":9729,"minFilter":9987,"wrapS":10497,"wrapT":10497}],"scene":0,"scenes":[{"nodes":[0]}],"textures":[{"sampler":0,"source":0},{"sampler":0,"source":1},{"sampler":0,"source":2},{"sampler":0,"source":0},{"sampler":0,"source":1},{"sampler":0,"source":2}]}