{
	"asset":{
		"generator":"Khronos glTF Blender I/O v4.2.57",
		"version":"2.0"
	},
	"scene":0,
	"scenes":[
		{
			"name":"Scene",
			"nodes":[
				0
			]
		}
	],
	"nodes":[
		{
			"mesh":0,
			"name":"Pottery_8",
			"translation":[
				1.763205885887146,
				0,
				0
			]
		}
	],
	"materials":[
		{
			"doubleSided":true,
			"name":"Pottery_3",
			"normalTexture":{
				"index":0
			},
			"pbrMetallicRoughness":{
				"baseColorTexture":{
					"index":1
				},
				"metallicFactor":0,
				"metallicRoughnessTexture":{
					"index":2
				}
			}
		}
	],
	"meshes":[
		{
			"name":"Plane.008",
			"primitives":[
				{
					"attributes":{
						"POSITION":0,
						"NORMAL":1,
						"TEXCOORD_0":2
					},
					"indices":3,
					"material":0
				}
			]
		}
	],
	"textures":[
		{
			"sampler":0,
			"source":0
		},
		{
			"sampler":0,
			"source":1
		},
		{
			"sampler":0,
			"source":2
		}
	],
	"images":[
		{
			"mimeType":"image/jpeg",
			"name":"Pottery_2K_Normal_OpenGL",
			"uri":"textures/Pottery_2K_Normal_OpenGL.jpg"
		},
		{
			"mimeType":"image/jpeg",
			"name":"Pottery_2K_Base_color_1",
			"uri":"textures/Pottery_2K_Base_color_1.jpg"
		},
		{
			"mimeType":"image/jpeg",
			"name":"Pottery_2K__Roughness",
			"uri":"textures/Pottery_2K__Roughness.jpg"
		}
	],
	"accessors":[
		{
			"bufferView":0,
			"componentType":5126,
			"count":331,
			"max":[
				0.13289611041545868,
				0.3858658969402313,
				0.1328960657119751
			],
			"min":[
				-0.1328960806131363,
				0,
				-0.13289609551429749
			],
			"type":"VEC3"
		},
		{
			"bufferView":1,
			"componentType":5126,
			"count":331,
			"type":"VEC3"
		},
		{
			"bufferView":2,
			"componentType":5126,
			"count":331,
			"type":"VEC2"
		},
		{
			"bufferView":3,
			"componentType":5123,
			"count":1632,
			"type":"SCALAR"
		}
	],
	"bufferViews":[
		{
			"buffer":0,
			"byteLength":3972,
			"byteOffset":0,
			"target":34962
		},
		{
			"buffer":0,
			"byteLength":3972,
			"byteOffset":3972,
			"target":34962
		},
		{
			"buffer":0,
			"byteLength":2648,
			"byteOffset":7944,
			"target":34962
		},
		{
			"buffer":0,
			"byteLength":3264,
			"byteOffset":10592,
			"target":34963
		}
	],
	"samplers":[
		{
			"magFilter":9729,
			"minFilter":9987
		}
	],
	"buffers":[
		{
			"byteLength":13856,
			"uri":"bottle.bin"
		}
	]
}
