{
	"asset":{
		"generator":"Khronos glTF Blender I/O v4.2.57",
		"version":"2.0"
	},
	"scene":0,
	"scenes":[
		{
			"name":"Scene",
			"nodes":[
				0
			]
		}
	],
	"nodes":[
		{
			"mesh":0,
			"name":"Pottery_3",
			"translation":[
				-1.2643494606018066,
				-0.00016658753156661987,
				0
			]
		}
	],
	"materials":[
		{
			"doubleSided":true,
			"name":"Pottery_3",
			"normalTexture":{
				"index":0
			},
			"pbrMetallicRoughness":{
				"baseColorTexture":{
					"index":1
				},
				"metallicFactor":0,
				"metallicRoughnessTexture":{
					"index":2
				}
			}
		}
	],
	"meshes":[
		{
			"name":"Sphere.002",
			"primitives":[
				{
					"attributes":{
						"POSITION":0,
						"NORMAL":1,
						"TEXCOORD_0":2
					},
					"indices":3,
					"material":0
				}
			]
		}
	],
	"textures":[
		{
			"sampler":0,
			"source":0
		},
		{
			"sampler":0,
			"source":1
		},
		{
			"sampler":0,
			"source":2
		}
	],
	"images":[
		{
			"mimeType":"image/jpeg",
			"name":"Pottery_2K_Normal_OpenGL",
			"uri":"textures/Pottery_2K_Normal_OpenGL.jpg"
		},
		{
			"mimeType":"image/jpeg",
			"name":"Pottery_2K_Base_color_1",
			"uri":"textures/Pottery_2K_Base_color_1.jpg"
		},
		{
			"mimeType":"image/jpeg",
			"name":"Pottery_2K__Roughness",
			"uri":"textures/Pottery_2K__Roughness.jpg"
		}
	],
	"accessors":[
		{
			"bufferView":0,
			"componentType":5126,
			"count":628,
			"max":[
				0.2354978621006012,
				0.18732263147830963,
				0.18913134932518005
			],
			"min":[
				-0.2354978621006012,
				0.0012911719968542457,
				-0.18913142383098602
			],
			"type":"VEC3"
		},
		{
			"bufferView":1,
			"componentType":5126,
			"count":628,
			"type":"VEC3"
		},
		{
			"bufferView":2,
			"componentType":5126,
			"count":628,
			"type":"VEC2"
		},
		{
			"bufferView":3,
			"componentType":5123,
			"count":2748,
			"type":"SCALAR"
		}
	],
	"bufferViews":[
		{
			"buffer":0,
			"byteLength":7536,
			"byteOffset":0,
			"target":34962
		},
		{
			"buffer":0,
			"byteLength":7536,
			"byteOffset":7536,
			"target":34962
		},
		{
			"buffer":0,
			"byteLength":5024,
			"byteOffset":15072,
			"target":34962
		},
		{
			"buffer":0,
			"byteLength":5496,
			"byteOffset":20096,
			"target":34963
		}
	],
	"samplers":[
		{
			"magFilter":9729,
			"minFilter":9987
		}
	],
	"buffers":[
		{
			"byteLength":25592,
			"uri":"bowl.bin"
		}
	]
}
