{
	"asset":{
		"generator":"Khronos glTF Blender I/O v4.2.57",
		"version":"2.0"
	},
	"scene":0,
	"scenes":[
		{
			"name":"Scene",
			"nodes":[
				0
			]
		}
	],
	"nodes":[
		{
			"mesh":0,
			"name":"Pottery_7",
			"translation":[
				1.364770770072937,
				0,
				0.13361816108226776
			]
		}
	],
	"materials":[
		{
			"doubleSided":true,
			"name":"Pottery_3",
			"normalTexture":{
				"index":0
			},
			"pbrMetallicRoughness":{
				"baseColorTexture":{
					"index":1
				},
				"metallicFactor":0,
				"metallicRoughnessTexture":{
					"index":2
				}
			}
		}
	],
	"meshes":[
		{
			"name":"Plane.005",
			"primitives":[
				{
					"attributes":{
						"POSITION":0,
						"NORMAL":1,
						"TEXCOORD_0":2
					},
					"indices":3,
					"material":0
				}
			]
		}
	],
	"textures":[
		{
			"sampler":0,
			"source":0
		},
		{
			"sampler":0,
			"source":1
		},
		{
			"sampler":0,
			"source":2
		}
	],
	"images":[
		{
			"mimeType":"image/jpeg",
			"name":"Pottery_2K_Normal_OpenGL",
			"uri":"textures/Pottery_2K_Normal_OpenGL.jpg"
		},
		{
			"mimeType":"image/jpeg",
			"name":"Pottery_2K_Base_color_1",
			"uri":"textures/Pottery_2K_Base_color_1.jpg"
		},
		{
			"mimeType":"image/jpeg",
			"name":"Pottery_2K__Roughness",
			"uri":"textures/Pottery_2K__Roughness.jpg"
		}
	],
	"accessors":[
		{
			"bufferView":0,
			"componentType":5126,
			"count":271,
			"max":[
				0.0870065987110138,
				0.16525410115718842,
				0.0870065838098526
			],
			"min":[
				-0.0870065912604332,
				0,
				-0.0870065987110138
			],
			"type":"VEC3"
		},
		{
			"bufferView":1,
			"componentType":5126,
			"count":271,
			"type":"VEC3"
		},
		{
			"bufferView":2,
			"componentType":5126,
			"count":271,
			"type":"VEC2"
		},
		{
			"bufferView":3,
			"componentType":5123,
			"count":1248,
			"type":"SCALAR"
		}
	],
	"bufferViews":[
		{
			"buffer":0,
			"byteLength":3252,
			"byteOffset":0,
			"target":34962
		},
		{
			"buffer":0,
			"byteLength":3252,
			"byteOffset":3252,
			"target":34962
		},
		{
			"buffer":0,
			"byteLength":2168,
			"byteOffset":6504,
			"target":34962
		},
		{
			"buffer":0,
			"byteLength":2496,
			"byteOffset":8672,
			"target":34963
		}
	],
	"samplers":[
		{
			"magFilter":9729,
			"minFilter":9987
		}
	],
	"buffers":[
		{
			"byteLength":11168,
			"uri":"cup.bin"
		}
	]
}
