{
	"asset":{
		"generator":"Khronos glTF Blender I/O v4.2.57",
		"version":"2.0"
	},
	"scene":0,
	"scenes":[
		{
			"name":"Scene",
			"nodes":[
				0
			]
		}
	],
	"nodes":[
		{
			"mesh":0,
			"name":"Pottery_6",
			"translation":[
				0.7250252962112427,
				0,
				0
			]
		}
	],
	"materials":[
		{
			"doubleSided":true,
			"name":"Pottery_3",
			"normalTexture":{
				"index":0
			},
			"pbrMetallicRoughness":{
				"baseColorTexture":{
					"index":1
				},
				"metallicFactor":0,
				"metallicRoughnessTexture":{
					"index":2
				}
			}
		}
	],
	"meshes":[
		{
			"name":"Plane.004",
			"primitives":[
				{
					"attributes":{
						"POSITION":0,
						"NORMAL":1,
						"TEXCOORD_0":2
					},
					"indices":3,
					"material":0
				}
			]
		}
	],
	"textures":[
		{
			"sampler":0,
			"source":0
		},
		{
			"sampler":0,
			"source":1
		},
		{
			"sampler":0,
			"source":2
		}
	],
	"images":[
		{
			"mimeType":"image/jpeg",
			"name":"Pottery_2K_Normal_OpenGL",
			"uri":"textures/Pottery_2K_Normal_OpenGL.jpg"
		},
		{
			"mimeType":"image/jpeg",
			"name":"Pottery_2K_Base_color_1",
			"uri":"textures/Pottery_2K_Base_color_1.jpg"
		},
		{
			"mimeType":"image/jpeg",
			"name":"Pottery_2K__Roughness",
			"uri":"textures/Pottery_2K__Roughness.jpg"
		}
	],
	"accessors":[
		{
			"bufferView":0,
			"componentType":5126,
			"count":540,
			"max":[
				0.22113269567489624,
				0.5312632322311401,
				0.18672043085098267
			],
			"min":[
				-0.18672044575214386,
				0,
				-0.18672043085098267
			],
			"type":"VEC3"
		},
		{
			"bufferView":1,
			"componentType":5126,
			"count":540,
			"type":"VEC3"
		},
		{
			"bufferView":2,
			"componentType":5126,
			"count":540,
			"type":"VEC2"
		},
		{
			"bufferView":3,
			"componentType":5123,
			"count":2568,
			"type":"SCALAR"
		}
	],
	"bufferViews":[
		{
			"buffer":0,
			"byteLength":6480,
			"byteOffset":0,
			"target":34962
		},
		{
			"buffer":0,
			"byteLength":6480,
			"byteOffset":6480,
			"target":34962
		},
		{
			"buffer":0,
			"byteLength":4320,
			"byteOffset":12960,
			"target":34962
		},
		{
			"buffer":0,
			"byteLength":5136,
			"byteOffset":17280,
			"target":34963
		}
	],
	"samplers":[
		{
			"magFilter":9729,
			"minFilter":9987
		}
	],
	"buffers":[
		{
			"byteLength":22416,
			"uri":"jug.bin"
		}
	]
}
