{
	"asset":{
		"generator":"Khronos glTF Blender I/O v4.2.57",
		"version":"2.0"
	},
	"scene":0,
	"scenes":[
		{
			"name":"Scene",
			"nodes":[
				0
			]
		}
	],
	"nodes":[
		{
			"mesh":0,
			"name":"Pottery_2",
			"translation":[
				-1.7059576511383057,
				0,
				0
			]
		}
	],
	"materials":[
		{
			"doubleSided":true,
			"name":"Pottery_3",
			"normalTexture":{
				"index":0
			},
			"pbrMetallicRoughness":{
				"baseColorTexture":{
					"index":1
				},
				"metallicFactor":0,
				"metallicRoughnessTexture":{
					"index":2
				}
			}
		}
	],
	"meshes":[
		{
			"name":"Sphere.001",
			"primitives":[
				{
					"attributes":{
						"POSITION":0,
						"NORMAL":1,
						"TEXCOORD_0":2
					},
					"indices":3,
					"material":0
				}
			]
		}
	],
	"textures":[
		{
			"sampler":0,
			"source":0
		},
		{
			"sampler":0,
			"source":1
		},
		{
			"sampler":0,
			"source":2
		}
	],
	"images":[
		{
			"mimeType":"image/jpeg",
			"name":"Pottery_2K_Normal_OpenGL",
			"uri":"textures/Pottery_2K_Normal_OpenGL.jpg"
		},
		{
			"mimeType":"image/jpeg",
			"name":"Pottery_2K_Base_color_1",
			"uri":"textures/Pottery_2K_Base_color_1.jpg"
		},
		{
			"mimeType":"image/jpeg",
			"name":"Pottery_2K__Roughness",
			"uri":"textures/Pottery_2K__Roughness.jpg"
		}
	],
	"accessors":[
		{
			"bufferView":0,
			"componentType":5126,
			"count":467,
			"max":[
				0.11722853034734726,
				0.3664133548736572,
				0.11722851544618607
			],
			"min":[
				-0.11722850054502487,
				0.00018422615539748222,
				-0.11722854524850845
			],
			"type":"VEC3"
		},
		{
			"bufferView":1,
			"componentType":5126,
			"count":467,
			"type":"VEC3"
		},
		{
			"bufferView":2,
			"componentType":5126,
			"count":467,
			"type":"VEC2"
		},
		{
			"bufferView":3,
			"componentType":5123,
			"count":2400,
			"type":"SCALAR"
		}
	],
	"bufferViews":[
		{
			"buffer":0,
			"byteLength":5604,
			"byteOffset":0,
			"target":34962
		},
		{
			"buffer":0,
			"byteLength":5604,
			"byteOffset":5604,
			"target":34962
		},
		{
			"buffer":0,
			"byteLength":3736,
			"byteOffset":11208,
			"target":34962
		},
		{
			"buffer":0,
			"byteLength":4800,
			"byteOffset":14944,
			"target":34963
		}
	],
	"samplers":[
		{
			"magFilter":9729,
			"minFilter":9987
		}
	],
	"buffers":[
		{
			"byteLength":19744,
			"uri":"tall_jar.bin"
		}
	]
}
