{"asset":{"generator":"Khronos glTF Blender I/O v4.2.57","version":"2.0"},"scene":0,"scenes":[{"name":"Scene","nodes":[0]}],"nodes":[{"mesh":0,"name":"barrelpiece_2_cratebarrel_0","translation":[0.2958502471446991,0.4170829653739929,0.10533633828163147]}],"materials":[{"doubleSided":true,"name":"cratebarrel","normalTexture":{"index":0},"pbrMetallicRoughness":{"baseColorTexture":{"index":1},"metallicRoughnessTexture":{"index":2}}}],"meshes":[{"name":"barrelpiece_2_cratebarrel_0","primitives":[{"attributes":{"POSITION":0,"NORMAL":1,"TEXCOORD_0":2,"TEXCOORD_1":3},"indices":4,"material":0}]}],"textures":[{"sampler":0,"source":0},{"sampler":0,"source":1},{"sampler":0,"source":2}],"images":[{"mimeType":"image/jpeg","name":"cratebarrel_normal","uri":"textures/cratebarrel_normal.jpg"},{"mimeType":"image/jpeg","name":"cratebarrel_baseColor","uri":"textures/cratebarrel_baseColor.jpg"},{"mimeType":"image/jpeg","name":"cratebarrel_metallicRoughness","uri":"textures/cratebarrel_metallicRoughness.jpg"}],"accessors":[{"bufferView":0,"componentType":5126,"count":394,"max":[0.2028040736913681,0.4170829653739929,0.4351165294647217],"min":[-0.9321739673614502,-0.4170829653739929,-0.8841270208358765],"type":"VEC3"},{"bufferView":1,"componentType":5126,"count":394,"type":"VEC3"},{"bufferView":2,"componentType":5126,"count":394,"type":"VEC2"},{"bufferView":3,"componentType":5126,"count":394,"type":"VEC2"},{"bufferView":4,"componentType":5123,"count":888,"type":"SCALAR"}],"bufferViews":[{"buffer":0,"byteLength":4728,"byteOffset":0,"target":34962},{"buffer":0,"byteLength":4728,"byteOffset":4728,"target":34962},{"buffer":0,"byteLength":3152,"byteOffset":9456,"target":34962},{"buffer":0,"byteLength":3152,"byteOffset":12608,"target":34962},{"buffer":0,"byteLength":1776,"byteOffset":15760,"target":34963}],"samplers":[{"magFilter":9729,"minFilter":9987}],"buffers":[{"byteLength":17536,"uri":"barrel_broken.bin"}]}