{"asset":{"generator":"Khronos glTF Blender I/O v4.2.57","version":"2.0"},"scene":0,"scenes":[{"name":"Scene","nodes":[0]}],"nodes":[{"mesh":0,"name":"barrel_cratebarrel_0"}],"materials":[{"doubleSided":true,"name":"cratebarrel","normalTexture":{"index":0},"pbrMetallicRoughness":{"baseColorTexture":{"index":1},"metallicRoughnessTexture":{"index":2}}}],"meshes":[{"name":"barrel_cratebarrel_0","primitives":[{"attributes":{"POSITION":0,"NORMAL":1,"TEXCOORD_0":2,"TEXCOORD_1":3},"indices":4,"material":0}]}],"textures":[{"sampler":0,"source":0},{"sampler":0,"source":1},{"sampler":0,"source":2}],"images":[{"mimeType":"image/jpeg","name":"cratebarrel_normal","uri":"textures/cratebarrel_normal.jpg"},{"mimeType":"image/jpeg","name":"cratebarrel_baseColor","uri":"textures/cratebarrel_baseColor.jpg"},{"mimeType":"image/jpeg","name":"cratebarrel_metallicRoughness","uri":"textures/cratebarrel_metallicRoughness.jpg"}],"accessors":[{"bufferView":0,"componentType":5126,"count":277,"max":[77.29957580566406,110.36991119384766,77.29957580566406],"min":[-77.29957580566406,-84.63008880615234,-77.29957580566406],"type":"VEC3"},{"bufferView":1,"componentType":5126,"count":277,"type":"VEC3"},{"bufferView":2,"componentType":5126,"count":277,"type":"VEC2"},{"bufferView":3,"componentType":5126,"count":277,"type":"VEC2"},{"bufferView":4,"componentType":5123,"count":876,"type":"SCALAR"}],"bufferViews":[{"buffer":0,"byteLength":3324,"byteOffset":0,"target":34962},{"buffer":0,"byteLength":3324,"byteOffset":3324,"target":34962},{"buffer":0,"byteLength":2216,"byteOffset":6648,"target":34962},{"buffer":0,"byteLength":2216,"byteOffset":8864,"target":34962},{"buffer":0,"byteLength":1752,"byteOffset":11080,"target":34963}],"samplers":[{"magFilter":9729,"minFilter":9987}],"buffers":[{"byteLength":12832,"uri":"barrel.bin"}]}