{"asset":{"generator":"Khronos glTF Blender I/O v4.2.57","version":"2.0"},"scene":0,"scenes":[{"name":"Scene","nodes":[0]}],"nodes":[{"mesh":0,"name":"cratepiece_2_cratebarrel_0","translation":[0.29176628589630127,0.5168236494064331,0.008019739761948586]}],"materials":[{"doubleSided":true,"name":"cratebarrel","normalTexture":{"index":0},"pbrMetallicRoughness":{"baseColorTexture":{"index":1},"metallicRoughnessTexture":{"index":2}}}],"meshes":[{"name":"cratepiece_2_cratebarrel_0","primitives":[{"attributes":{"POSITION":0,"NORMAL":1,"TEXCOORD_0":2,"TEXCOORD_1":3},"indices":4,"material":0}]}],"textures":[{"sampler":0,"source":0},{"sampler":0,"source":1},{"sampler":0,"source":2}],"images":[{"mimeType":"image/jpeg","name":"cratebarrel_normal","uri":"textures/cratebarrel_normal.jpg"},{"mimeType":"image/jpeg","name":"cratebarrel_baseColor","uri":"textures/cratebarrel_baseColor.jpg"},{"mimeType":"image/jpeg","name":"cratebarrel_metallicRoughness","uri":"textures/cratebarrel_metallicRoughness.jpg"}],"accessors":[{"bufferView":0,"componentType":5126,"count":308,"max":[0.4479341506958008,0.5566451549530029,0.5255517959594727],"min":[-0.776917040348053,-0.5168236494064331,-0.7010685205459595],"type":"VEC3"},{"bufferView":1,"componentType":5126,"count":308,"type":"VEC3"},{"bufferView":2,"componentType":5126,"count":308,"type":"VEC2"},{"bufferView":3,"componentType":5126,"count":308,"type":"VEC2"},{"bufferView":4,"componentType":5123,"count":528,"type":"SCALAR"}],"bufferViews":[{"buffer":0,"byteLength":3696,"byteOffset":0,"target":34962},{"buffer":0,"byteLength":3696,"byteOffset":3696,"target":34962},{"buffer":0,"byteLength":2464,"byteOffset":7392,"target":34962},{"buffer":0,"byteLength":2464,"byteOffset":9856,"target":34962},{"buffer":0,"byteLength":1056,"byteOffset":12320,"target":34963}],"samplers":[{"magFilter":9729,"minFilter":9987}],"buffers":[{"byteLength":13376,"uri":"crate_broken.bin"}]}