{
	"asset":{
		"generator":"Khronos glTF Blender I/O v4.2.57",
		"version":"2.0"
	},
	"scene":0,
	"scenes":[
		{
			"name":"Scene",
			"nodes":[
				4
			]
		}
	],
	"nodes":[
		{
			"mesh":0,
			"name":"SM_MinotaurStatue_M_Stone02_0"
		},
		{
			"children":[
				0
			],
			"name":"SM_MinotaurStatue",
			"rotation":[
				-0.70710688829422,
				0,
				0,
				0.7071066498756409
			],
			"scale":[
				100,
				99.99999237060547,
				99.99999237060547
			]
		},
		{
			"children":[
				1
			],
			"name":"RootNode"
		},
		{
			"children":[
				2
			],
			"name":"13f07a7a28e24d1fab8bc03bb5136fd9.fbx",
			"rotation":[
				0.70710688829422,
				0,
				0,
				0.7071066498756409
			]
		},
		{
			"children":[
				3
			],
			"name":"Sketchfab_model",
			"rotation":[
				-0.70710688829422,
				0,
				0,
				0.7071066498756409
			]
		}
	],
	"materials":[
		{
			"doubleSided":true,
			"name":"M_Stone02",
			"normalTexture":{
				"index":0
			},
			"occlusionTexture":{
				"index":1
			},
			"pbrMetallicRoughness":{
				"baseColorTexture":{
					"index":2
				},
				"metallicFactor":0,
				"metallicRoughnessTexture":{
					"index":1
				}
			}
		}
	],
	"meshes":[
		{
			"name":"SM_MinotaurStatue_M_Stone02_0",
			"primitives":[
				{
					"attributes":{
						"POSITION":0,
						"NORMAL":1,
						"TEXCOORD_0":2,
						"TEXCOORD_1":3
					},
					"indices":4,
					"material":0
				}
			]
		}
	],
	"textures":[
		{
			"sampler":0,
			"source":0
		},
		{
			"sampler":0,
			"source":1
		},
		{
			"sampler":0,
			"source":2
		}
	],
	"images":[
		{
			"mimeType":"image/jpeg",
			"name":"M_Stone02_normal",
			"uri":"textures/M_Stone02_normal.jpg"
		},
		{
			"mimeType":"image/jpeg",
			"name":"M_Stone02_metallicRoughness",
			"uri":"textures/M_Stone02_metallicRoughness.jpg"
		},
		{
			"mimeType":"image/jpeg",
			"name":"M_Stone02_baseColor",
			"uri":"textures/M_Stone02_baseColor.jpg"
		}
	],
	"accessors":[
		{
			"bufferView":0,
			"componentType":5126,
			"count":4391,
			"max":[
				4.190675258636475,
				3.2797296047210693,
				14.77627182006836
			],
			"min":[
				-4.19584321975708,
				-5.372319221496582,
				-6.62416410446167
			],
			"type":"VEC3"
		},
		{
			"bufferView":1,
			"componentType":5126,
			"count":4391,
			"type":"VEC3"
		},
		{
			"bufferView":2,
			"componentType":5126,
			"count":4391,
			"type":"VEC2"
		},
		{
			"bufferView":3,
			"componentType":5126,
			"count":4391,
			"type":"VEC2"
		},
		{
			"bufferView":4,
			"componentType":5123,
			"count":21360,
			"type":"SCALAR"
		}
	],
	"bufferViews":[
		{
			"buffer":0,
			"byteLength":52692,
			"byteOffset":0,
			"target":34962
		},
		{
			"buffer":0,
			"byteLength":52692,
			"byteOffset":52692,
			"target":34962
		},
		{
			"buffer":0,
			"byteLength":35128,
			"byteOffset":105384,
			"target":34962
		},
		{
			"buffer":0,
			"byteLength":35128,
			"byteOffset":140512,
			"target":34962
		},
		{
			"buffer":0,
			"byteLength":42720,
			"byteOffset":175640,
			"target":34963
		}
	],
	"samplers":[
		{
			"magFilter":9729,
			"minFilter":9987
		}
	],
	"buffers":[
		{
			"byteLength":218360,
			"uri":"minotaur.bin"
		}
	]
}
