{
	"asset":{
		"generator":"Khronos glTF Blender I/O v4.2.57",
		"version":"2.0"
	},
	"scene":0,
	"scenes":[
		{
			"name":"Scene",
			"nodes":[
				5
			]
		}
	],
	"nodes":[
		{
			"mesh":0,
			"name":"snakelp_0"
		},
		{
			"children":[
				0
			],
			"name":"snakelp",
			"rotation":[
				0.7041623592376709,
				0.06446348130702972,
				0.06446347385644913,
				0.7041622400283813
			],
			"scale":[
				0.03800167143344879,
				0.03800000250339508,
				0.03800167888402939
			],
			"translation":[
				0,
				0,
				7.062150001525879
			]
		},
		{
			"mesh":1,
			"name":"stone_0"
		},
		{
			"children":[
				2
			],
			"name":"stone",
			"rotation":[
				0.5391868352890015,
				-0.45746880769729614,
				-0.45746880769729614,
				0.5391867160797119
			],
			"scale":[
				0.03437916189432144,
				0.034380000084638596,
				0.03437916189432144
			],
			"translation":[
				0,
				0,
				4.0648298263549805
			]
		},
		{
			"children":[
				1,
				3
			],
			"name":"Root"
		},
		{
			"children":[
				4
			],
			"name":"Sketchfab_model",
			"rotation":[
				-0.70710688829422,
				0,
				0,
				0.7071066498756409
			]
		}
	],
	"materials":[
		{
			"name":"snake",
			"normalTexture":{
				"index":0
			},
			"occlusionTexture":{
				"index":1,
				"strength":0.699999988079071
			},
			"pbrMetallicRoughness":{
				"baseColorTexture":{
					"index":2
				},
				"metallicFactor":0.20000000298023224,
				"metallicRoughnessTexture":{
					"index":1
				},
				"roughnessFactor":0.38999998569488525
			}
		},
		{
			"name":"stones",
			"normalTexture":{
				"index":3
			},
			"occlusionTexture":{
				"index":4,
				"strength":0.8700000047683716
			},
			"pbrMetallicRoughness":{
				"baseColorTexture":{
					"index":5
				},
				"metallicFactor":0.20000000298023224,
				"metallicRoughnessTexture":{
					"index":4
				},
				"roughnessFactor":0.4099999964237213
			}
		}
	],
	"meshes":[
		{
			"name":"snakelp_0",
			"primitives":[
				{
					"attributes":{
						"POSITION":0,
						"NORMAL":1,
						"TEXCOORD_0":2,
						"TEXCOORD_1":3
					},
					"indices":4,
					"material":0
				}
			]
		},
		{
			"name":"stone_0",
			"primitives":[
				{
					"attributes":{
						"POSITION":5,
						"NORMAL":6,
						"TEXCOORD_0":7,
						"TEXCOORD_1":8
					},
					"indices":9,
					"material":1
				}
			]
		}
	],
	"textures":[
		{
			"sampler":0,
			"source":0
		},
		{
			"sampler":0,
			"source":1
		},
		{
			"sampler":0,
			"source":2
		},
		{
			"sampler":0,
			"source":3
		},
		{
			"sampler":0,
			"source":4
		},
		{
			"sampler":0,
			"source":5
		}
	],
	"images":[
		{
			"mimeType":"image/jpeg",
			"name":"snake_normal",
			"uri":"textures/snake_normal.jpg"
		},
		{
			"mimeType":"image/jpeg",
			"name":"snake_metallicRoughness",
			"uri":"textures/snake_metallicRoughness.jpg"
		},
		{
			"mimeType":"image/jpeg",
			"name":"snake_baseColor",
			"uri":"textures/snake_baseColor.jpg"
		},
		{
			"mimeType":"image/jpeg",
			"name":"stones_normal",
			"uri":"textures/stones_normal.jpg"
		},
		{
			"mimeType":"image/jpeg",
			"name":"stones_metallicRoughness",
			"uri":"textures/stones_metallicRoughness.jpg"
		},
		{
			"mimeType":"image/jpeg",
			"name":"stones_baseColor",
			"uri":"textures/stones_baseColor.jpg"
		}
	],
	"accessors":[
		{
			"bufferView":0,
			"componentType":5126,
			"count":929,
			"max":[
				76.96865844726562,
				56.0885009765625,
				75.50254821777344
			],
			"min":[
				-70.34375,
				-65.52520751953125,
				-73.94544982910156
			],
			"type":"VEC3"
		},
		{
			"bufferView":1,
			"componentType":5126,
			"count":929,
			"type":"VEC3"
		},
		{
			"bufferView":2,
			"componentType":5126,
			"count":929,
			"type":"VEC2"
		},
		{
			"bufferView":3,
			"componentType":5126,
			"count":929,
			"type":"VEC2"
		},
		{
			"bufferView":4,
			"componentType":5123,
			"count":4500,
			"type":"SCALAR"
		},
		{
			"bufferView":5,
			"componentType":5126,
			"count":2410,
			"max":[
				104.44261169433594,
				52.548038482666016,
				104.44268035888672
			],
			"min":[
				-104.44270324707031,
				-119.65036010742188,
				-104.44273376464844
			],
			"type":"VEC3"
		},
		{
			"bufferView":6,
			"componentType":5126,
			"count":2410,
			"type":"VEC3"
		},
		{
			"bufferView":7,
			"componentType":5126,
			"count":2410,
			"type":"VEC2"
		},
		{
			"bufferView":8,
			"componentType":5126,
			"count":2410,
			"type":"VEC2"
		},
		{
			"bufferView":9,
			"componentType":5123,
			"count":10656,
			"type":"SCALAR"
		}
	],
	"bufferViews":[
		{
			"buffer":0,
			"byteLength":11148,
			"byteOffset":0,
			"target":34962
		},
		{
			"buffer":0,
			"byteLength":11148,
			"byteOffset":11148,
			"target":34962
		},
		{
			"buffer":0,
			"byteLength":7432,
			"byteOffset":22296,
			"target":34962
		},
		{
			"buffer":0,
			"byteLength":7432,
			"byteOffset":29728,
			"target":34962
		},
		{
			"buffer":0,
			"byteLength":9000,
			"byteOffset":37160,
			"target":34963
		},
		{
			"buffer":0,
			"byteLength":28920,
			"byteOffset":46160,
			"target":34962
		},
		{
			"buffer":0,
			"byteLength":28920,
			"byteOffset":75080,
			"target":34962
		},
		{
			"buffer":0,
			"byteLength":19280,
			"byteOffset":104000,
			"target":34962
		},
		{
			"buffer":0,
			"byteLength":19280,
			"byteOffset":123280,
			"target":34962
		},
		{
			"buffer":0,
			"byteLength":21312,
			"byteOffset":142560,
			"target":34963
		}
	],
	"samplers":[
		{
			"magFilter":9729,
			"minFilter":9987
		}
	],
	"buffers":[
		{
			"byteLength":163872,
			"uri":"snake.bin"
		}
	]
}
