{"asset":{"generator":"Khronos glTF Blender I/O v4.2.57","version":"2.0"},"extensionsUsed":["KHR_materials_specular"],"scene":0,"scenes":[{"name":"Scene","nodes":[0]}],"nodes":[{"mesh":0,"name":"plate","rotation":[-0.7071070075035095,0,0,0.7071065902709961],"scale":[3.299999952316284,3.3000004291534424,3.3000004291534424]}],"materials":[{"doubleSided":true,"extensions":{"KHR_materials_specular":{"specularFactor":0.30000001192092896}},"name":"spike","normalTexture":{"index":0},"occlusionTexture":{"index":1},"pbrMetallicRoughness":{"baseColorTexture":{"index":2},"metallicRoughnessTexture":{"index":1},"roughnessFactor":0.8500000238418579}}],"meshes":[{"name":"OPM0041_OPM0041_0","primitives":[{"attributes":{"POSITION":0,"NORMAL":1,"TEXCOORD_0":2,"TEXCOORD_1":3},"indices":4,"material":0}]}],"textures":[{"sampler":0,"source":0},{"sampler":0,"source":1},{"sampler":0,"source":2}],"images":[{"mimeType":"image/jpeg","name":"spike_2","uri":"textures/spike_2.jpg"},{"mimeType":"image/jpeg","name":"spike_1","uri":"textures/spike_1.jpg"},{"mimeType":"image/jpeg","name":"spike_0","uri":"textures/spike_0.jpg"}],"accessors":[{"bufferView":0,"componentType":5126,"count":20,"max":[0.30000001192092896,0.30000004172325134,0.020000005140900612],"min":[-0.30000001192092896,-0.30000004172325134,0],"type":"VEC3"},{"bufferView":1,"componentType":5126,"count":20,"type":"VEC3"},{"bufferView":2,"componentType":5126,"count":20,"type":"VEC2"},{"bufferView":3,"componentType":5126,"count":20,"type":"VEC2"},{"bufferView":4,"componentType":5123,"count":30,"type":"SCALAR"}],"bufferViews":[{"buffer":0,"byteLength":240,"byteOffset":0,"target":34962},{"buffer":0,"byteLength":240,"byteOffset":240,"target":34962},{"buffer":0,"byteLength":160,"byteOffset":480,"target":34962},{"buffer":0,"byteLength":160,"byteOffset":640,"target":34962},{"buffer":0,"byteLength":60,"byteOffset":800,"target":34963}],"samplers":[{"magFilter":9729,"minFilter":9987}],"buffers":[{"byteLength":860,"uri":"plate.bin"}]}