{"asset":{"generator":"Khronos glTF Blender I/O v4.2.57","version":"2.0"},"extensionsUsed":["KHR_materials_specular"],"scene":0,"scenes":[{"name":"Scene","nodes":[0]}],"nodes":[{"mesh":0,"name":"spikes","rotation":[-0.7071070075035095,0,0,0.7071065902709961],"scale":[3.299999952316284,3.3000004291534424,3.3000004291534424]}],"materials":[{"doubleSided":true,"extensions":{"KHR_materials_specular":{"specularFactor":0.30000001192092896}},"name":"spike","normalTexture":{"index":0},"occlusionTexture":{"index":1},"pbrMetallicRoughness":{"baseColorTexture":{"index":2},"metallicRoughnessTexture":{"index":1},"roughnessFactor":0.8500000238418579}}],"meshes":[{"name":"OPM0041_OPM0041_0.006","primitives":[{"attributes":{"POSITION":0,"NORMAL":1,"TEXCOORD_0":2,"TEXCOORD_1":3},"indices":4,"material":0}]}],"textures":[{"sampler":0,"source":0},{"sampler":0,"source":1},{"sampler":0,"source":2}],"images":[{"mimeType":"image/jpeg","name":"spike_2","uri":"textures/spike_2.jpg"},{"mimeType":"image/jpeg","name":"spike_1","uri":"textures/spike_1.jpg"},{"mimeType":"image/jpeg","name":"spike_0","uri":"textures/spike_0.jpg"}],"accessors":[{"bufferView":0,"componentType":5126,"count":450,"max":[0.26838868856430054,0.26838845014572144,0.18506158888339996],"min":[-0.26837602257728577,-0.26837167143821716,0.019732804968953133],"type":"VEC3"},{"bufferView":1,"componentType":5126,"count":450,"type":"VEC3"},{"bufferView":2,"componentType":5126,"count":450,"type":"VEC2"},{"bufferView":3,"componentType":5126,"count":450,"type":"VEC2"},{"bufferView":4,"componentType":5123,"count":1200,"type":"SCALAR"}],"bufferViews":[{"buffer":0,"byteLength":5400,"byteOffset":0,"target":34962},{"buffer":0,"byteLength":5400,"byteOffset":5400,"target":34962},{"buffer":0,"byteLength":3600,"byteOffset":10800,"target":34962},{"buffer":0,"byteLength":3600,"byteOffset":14400,"target":34962},{"buffer":0,"byteLength":2400,"byteOffset":18000,"target":34963}],"samplers":[{"magFilter":9729,"minFilter":9987}],"buffers":[{"byteLength":20400,"uri":"spikes.bin"}]}