{"asset":{"generator":"Khronos glTF Blender I/O v4.2.57","version":"2.0"},"scene":0,"scenes":[{"name":"Scene","nodes":[3]}],"nodes":[{"name":"Fire_Particles","scale":[1.371353268623352,1,2.248277187347412],"translation":[0,0.9196401834487915,0]},{"name":"PointLight","scale":[1.371353268623352,1,2.248277187347412],"translation":[0.012065429240465164,1.2943490743637085,0]},{"mesh":0,"name":"SM_smallstand"},{"children":[0,1,2],"name":"BP_Torch_Stand63"}],"materials":[{"name":"MI_Props","normalTexture":{"index":0},"occlusionTexture":{"index":1},"pbrMetallicRoughness":{"baseColorTexture":{"index":2},"metallicRoughnessTexture":{"index":1}}}],"meshes":[{"name":"SM_Small_Stand","primitives":[{"attributes":{"POSITION":0,"NORMAL":1,"TEXCOORD_0":2,"TEXCOORD_1":3,"TEXCOORD_2":4},"indices":5,"material":0}]}],"textures":[{"sampler":0,"source":0},{"sampler":0,"source":1},{"sampler":0,"source":2}],"images":[{"mimeType":"image/png","name":"MI_Props_Normal","uri":"textures/MI_Props_Normal.png"},{"mimeType":"image/png","name":"MI_Props_Occlusion-MI_Props_MetallicRoughness","uri":"textures/MI_Props_Occlusion-MI_Props_MetallicRoughness.png"},{"mimeType":"image/png","name":"MI_Props_BaseColor","uri":"textures/MI_Props_BaseColor.png"}],"accessors":[{"bufferView":0,"componentType":5126,"count":795,"max":[0.21212798357009888,0.9351485967636108,0.21183723211288452],"min":[-0.21212798357009888,-0.0011093902867287397,-0.21183647215366364],"type":"VEC3"},{"bufferView":1,"componentType":5126,"count":795,"type":"VEC3"},{"bufferView":2,"componentType":5126,"count":795,"type":"VEC2"},{"bufferView":3,"componentType":5126,"count":795,"type":"VEC2"},{"bufferView":4,"componentType":5126,"count":795,"type":"VEC2"},{"bufferView":5,"componentType":5123,"count":3762,"type":"SCALAR"}],"bufferViews":[{"buffer":0,"byteLength":9540,"byteOffset":0,"target":34962},{"buffer":0,"byteLength":9540,"byteOffset":9540,"target":34962},{"buffer":0,"byteLength":6360,"byteOffset":19080,"target":34962},{"buffer":0,"byteLength":6360,"byteOffset":25440,"target":34962},{"buffer":0,"byteLength":6360,"byteOffset":31800,"target":34962},{"buffer":0,"byteLength":7524,"byteOffset":38160,"target":34963}],"samplers":[{"magFilter":9729,"minFilter":9987}],"buffers":[{"byteLength":45684,"uri":"BP_Torch_Stand.bin"}]}