{"asset":{"generator":"Khronos glTF Blender I/O v4.2.57","version":"2.0"},"scene":0,"scenes":[{"name":"Scene","nodes":[0]}],"nodes":[{"mesh":0,"name":"goldbag"}],"materials":[{"doubleSided":true,"name":"goldbag","pbrMetallicRoughness":{"baseColorTexture":{"index":0},"metallicFactor":0,"roughnessFactor":0.800000011920929}}],"meshes":[{"name":"Mesh_0","primitives":[{"attributes":{"POSITION":0,"NORMAL":1,"TEXCOORD_0":2},"indices":3,"material":0}]}],"textures":[{"sampler":0,"source":0}],"images":[{"mimeType":"image/jpeg","name":"goldbag","uri":"textures/goldbag.jpg"}],"accessors":[{"bufferView":0,"componentType":5126,"count":2683,"max":[0.5130573511123657,0.6000000238418579,0.26646000146865845],"min":[-0.5130573511123657,-0.599649965763092,-0.26670128107070923],"type":"VEC3"},{"bufferView":1,"componentType":5126,"count":2683,"type":"VEC3"},{"bufferView":2,"componentType":5126,"count":2683,"type":"VEC2"},{"bufferView":3,"componentType":5123,"count":11568,"type":"SCALAR"}],"bufferViews":[{"buffer":0,"byteLength":32196,"byteOffset":0,"target":34962},{"buffer":0,"byteLength":32196,"byteOffset":32196,"target":34962},{"buffer":0,"byteLength":21464,"byteOffset":64392,"target":34962},{"buffer":0,"byteLength":23136,"byteOffset":85856,"target":34963}],"samplers":[{"magFilter":9729,"minFilter":9987}],"buffers":[{"byteLength":108992,"uri":"goldbag.bin"}]}