{
  "accessors": [
    {
      "bufferView": 2,
      "componentType": 5126,
      "count": 156,
      "max": [
        0.16544200479984283,
        0.5071880221366882,
        0.20618300139904022
      ],
      "min": [
        -0.15866899490356445,
        0.07869870215654373,
        -0.12087900191545486
      ],
      "type": "VEC3"
    },
    {
      "bufferView": 2,
      "byteOffset": 1872,
      "componentType": 5126,
      "count": 156,
      "max": [
        0.9942392110824585,
        0.9921556711196899,
        0.9828486442565918
      ],
      "min": [
        -0.9725013375282288,
        -0.9918859004974365,
        -0.9932684898376465
      ],
      "type": "VEC3"
    },
    {
      "bufferView": 3,
      "componentType": 5126,
      "count": 156,
      "max": [
        0.9883663654327393,
        0.9322067499160767,
        0.9908004999160767,
        1.0
      ],
      "min": [
        -0.9969598054885864,
        -0.34262117743492126,
        -0.9969232678413391,
        1.0
      ],
      "type": "VEC4"
    },
    {
      "bufferView": 1,
      "componentType": 5126,
      "count": 156,
      "max": [
        0.966035008430481,
        0.9666270017623901
      ],
      "min": [
        0.09469989687204361,
        0.0005000000237487257
      ],
      "type": "VEC2"
    },
    {
      "bufferView": 0,
      "componentType": 5125,
      "count": 774,
      "type": "SCALAR"
    },
    {
      "bufferView": 2,
      "byteOffset": 3744,
      "componentType": 5126,
      "count": 596,
      "max": [
        0.4270870089530945,
        1.0,
        -0.07183189690113068
      ],
      "min": [
        -0.4270870089530945,
        -1.0,
        -0.3813289999961853
      ],
      "type": "VEC3"
    },
    {
      "bufferView": 2,
      "byteOffset": 10896,
      "componentType": 5126,
      "count": 596,
      "max": [
        0.9999991059303284,
        0.9959465265274048,
        1.0
      ],
      "min": [
        -0.9999991059303284,
        -1.0,
        -1.0
      ],
      "type": "VEC3"
    },
    {
      "bufferView": 3,
      "byteOffset": 2496,
      "componentType": 5126,
      "count": 596,
      "max": [
        1.0,
        0.99956214427948,
        0.9987595677375793,
        1.0
      ],
      "min": [
        -1.0,
        -0.995531439781189,
        -0.999226450920105,
        1.0
      ],
      "type": "VEC4"
    },
    {
      "bufferView": 1,
      "byteOffset": 1248,
      "componentType": 5126,
      "count": 596,
      "max": [
        0.9715120196342468,
        0.9945279955863953
      ],
      "min": [
        0.005733329802751541,
        0.13656599819660187
      ],
      "type": "VEC2"
    },
    {
      "bufferView": 0,
      "byteOffset": 3096,
      "componentType": 5125,
      "count": 1896,
      "type": "SCALAR"
    },
    {
      "bufferView": 2,
      "byteOffset": 18048,
      "componentType": 5126,
      "count": 271,
      "max": [
        0.10339900106191635,
        0.18653999269008636,
        0.08218920230865479
      ],
      "min": [
        -0.0872419998049736,
        -0.9335430264472961,
        -0.3103789985179901
      ],
      "type": "VEC3"
    },
    {
      "bufferView": 2,
      "byteOffset": 21300,
      "componentType": 5126,
      "count": 271,
      "max": [
        1.0,
        0.9975977540016174,
        0.9975864887237549
      ],
      "min": [
        -1.0,
        -0.9947753548622131,
        -0.9992703795433044
      ],
      "type": "VEC3"
    },
    {
      "bufferView": 3,
      "byteOffset": 12032,
      "componentType": 5126,
      "count": 271,
      "max": [
        1.0,
        0.9803078770637512,
        0.9690200686454773,
        1.0
      ],
      "min": [
        -0.9999955892562866,
        -0.975959837436676,
        -0.9702228307723999,
        -1.0
      ],
      "type": "VEC4"
    },
    {
      "bufferView": 1,
      "byteOffset": 6016,
      "componentType": 5126,
      "count": 271,
      "max": [
        0.9929090142250061,
        0.8878459930419922
      ],
      "min": [
        0.5305209755897522,
        0.0005000000237487257
      ],
      "type": "VEC2"
    },
    {
      "bufferView": 0,
      "byteOffset": 10680,
      "componentType": 5125,
      "count": 1020,
      "type": "SCALAR"
    },
    {
      "bufferView": 2,
      "byteOffset": 24552,
      "componentType": 5126,
      "count": 2712,
      "max": [
        0.3472070097923279,
        0.8530240058898926,
        0.3813289999961853
      ],
      "min": [
        -0.3365679979324341,
        -0.8360580205917358,
        -0.3295060098171234
      ],
      "type": "VEC3"
    },
    {
      "bufferView": 2,
      "byteOffset": 57096,
      "componentType": 5126,
      "count": 2712,
      "max": [
        1.0,
        0.9975979924201965,
        0.9997283816337585
      ],
      "min": [
        -1.0,
        -0.9999701380729675,
        -0.999728262424469
      ],
      "type": "VEC3"
    },
    {
      "bufferView": 3,
      "byteOffset": 16368,
      "componentType": 5126,
      "count": 2712,
      "max": [
        1.0,
        1.0,
        0.9992437362670898,
        1.0
      ],
      "min": [
        -1.0,
        -1.0,
        -0.999244213104248,
        -1.0
      ],
      "type": "VEC4"
    },
    {
      "bufferView": 1,
      "byteOffset": 8184,
      "componentType": 5126,
      "count": 2712,
      "max": [
        0.9994999766349792,
        0.9947050213813782
      ],
      "min": [
        0.0005000000237487257,
        0.0005000000237487257
      ],
      "type": "VEC2"
    },
    {
      "bufferView": 0,
      "byteOffset": 14760,
      "componentType": 5125,
      "count": 11004,
      "type": "SCALAR"
    }
  ],
  "asset": {
    "extras": {
      "author": "persnetto (https://sketchfab.com/persnetto)",
      "license": "CC-BY-4.0 (http://creativecommons.org/licenses/by/4.0/)",
      "source": "https://sketchfab.com/3d-models/rusty-wall-mounted-torch-cf0ae61e317b483b942fd10af357321b",
      "title": "Rusty Wall Mounted Torch"
    },
    "generator": "Sketchfab-12.68.0",
    "version": "2.0"
  },
  "bufferViews": [
    {
      "buffer": 0,
      "byteLength": 58776,
      "name": "floatBufferViews",
      "target": 34963
    },
    {
      "buffer": 0,
      "byteLength": 29880,
      "byteOffset": 58776,
      "byteStride": 8,
      "name": "floatBufferViews",
      "target": 34962
    },
    {
      "buffer": 0,
      "byteLength": 89640,
      "byteOffset": 88656,
      "byteStride": 12,
      "name": "floatBufferViews",
      "target": 34962
    },
    {
      "buffer": 0,
      "byteLength": 59760,
      "byteOffset": 178296,
      "byteStride": 16,
      "name": "floatBufferViews",
      "target": 34962
    }
  ],
  "buffers": [
    {
      "byteLength": 238056,
      "uri": "scene.bin"
    }
  ],
  "images": [
    {
      "uri": "textures/Material__37_baseColor.jpeg"
    },
    {
      "uri": "textures/Material__37_metallicRoughness.png"
    },
    {
      "uri": "textures/Material__37_normal.png"
    },
    {
      "uri": "textures/Material__39_baseColor.jpeg"
    },
    {
      "uri": "textures/Material__39_metallicRoughness.png"
    },
    {
      "uri": "textures/Material__39_normal.png"
    },
    {
      "uri": "textures/Material__40_baseColor.jpeg"
    },
    {
      "uri": "textures/Material__40_metallicRoughness.png"
    },
    {
      "uri": "textures/Material__40_normal.png"
    },
    {
      "uri": "textures/Material__41_baseColor.jpeg"
    },
    {
      "uri": "textures/Material__41_metallicRoughness.png"
    },
    {
      "uri": "textures/Material__41_normal.png"
    }
  ],
  "materials": [
    {
      "doubleSided": true,
      "name": "Material__37",
      "normalTexture": {
        "index": 2
      },
      "pbrMetallicRoughness": {
        "baseColorTexture": {
          "index": 0
        },
        "metallicRoughnessTexture": {
          "index": 1
        }
      }
    },
    {
      "doubleSided": true,
      "name": "Material__39",
      "normalTexture": {
        "index": 5
      },
      "pbrMetallicRoughness": {
        "baseColorTexture": {
          "index": 3
        },
        "metallicRoughnessTexture": {
          "index": 4
        }
      }
    },
    {
      "doubleSided": true,
      "name": "Material__40",
      "normalTexture": {
        "index": 8
      },
      "pbrMetallicRoughness": {
        "baseColorTexture": {
          "index": 6
        },
        "metallicRoughnessTexture": {
          "index": 7
        }
      }
    },
    {
      "doubleSided": true,
      "name": "Material__41",
      "normalTexture": {
        "index": 11
      },
      "pbrMetallicRoughness": {
        "baseColorTexture": {
          "index": 9
        },
        "metallicRoughnessTexture": {
          "index": 10
        }
      }
    }
  ],
  "meshes": [
    {
      "name": "defaultMaterial",
      "primitives": [
        {
          "attributes": {
            "NORMAL": 1,
            "POSITION": 0,
            "TANGENT": 2,
            "TEXCOORD_0": 3
          },
          "indices": 4,
          "material": 3,
          "mode": 4
        }
      ]
    },
    {
      "name": "defaultMaterial",
      "primitives": [
        {
          "attributes": {
            "NORMAL": 6,
            "POSITION": 5,
            "TANGENT": 7,
            "TEXCOORD_0": 8
          },
          "indices": 9,
          "material": 2,
          "mode": 4
        }
      ]
    },
    {
      "name": "defaultMaterial",
      "primitives": [
        {
          "attributes": {
            "NORMAL": 11,
            "POSITION": 10,
            "TANGENT": 12,
            "TEXCOORD_0": 13
          },
          "indices": 14,
          "material": 1,
          "mode": 4
        }
      ]
    },
    {
      "name": "defaultMaterial",
      "primitives": [
        {
          "attributes": {
            "NORMAL": 16,
            "POSITION": 15,
            "TANGENT": 17,
            "TEXCOORD_0": 18
          },
          "indices": 19,
          "material": 0,
          "mode": 4
        }
      ]
    }
  ],
  "nodes": [
    {
      "children": [
        1
      ],
      "matrix": [
        1.0,
        0.0,
        0.0,
        0.0,
        0.0,
        2.220446049250313e-16,
        -1.0,
        0.0,
        0.0,
        1.0,
        2.220446049250313e-16,
        0.0,
        0.0,
        0.0,
        0.0,
        1.0
      ],
      "name": "Sketchfab_model"
    },
    {
      "children": [
        2,
        4,
        6,
        8
      ],
      "matrix": [
        1.0,
        0.0,
        0.0,
        0.0,
        0.0,
        -4.371139006309477e-08,
        0.999999999999999,
        0.0,
        0.0,
        -0.999999999999999,
        -4.371139006309477e-08,
        0.0,
        0.0,
        0.0,
        0.0,
        1.0
      ],
      "name": "Collada visual scene group"
    },
    {
      "children": [
        3
      ],
      "name": "torch_lp"
    },
    {
      "mesh": 0,
      "name": "defaultMaterial"
    },
    {
      "children": [
        5
      ],
      "name": "torch_lp"
    },
    {
      "mesh": 1,
      "name": "defaultMaterial"
    },
    {
      "children": [
        7
      ],
      "name": "torch_lp"
    },
    {
      "mesh": 2,
      "name": "defaultMaterial"
    },
    {
      "children": [
        9
      ],
      "name": "torch_lp"
    },
    {
      "mesh": 3,
      "name": "defaultMaterial"
    }
  ],
  "samplers": [
    {
      "magFilter": 9729,
      "minFilter": 9987,
      "wrapS": 10497,
      "wrapT": 10497
    }
  ],
  "scene": 0,
  "scenes": [
    {
      "name": "Sketchfab_Scene",
      "nodes": [
        0
      ]
    }
  ],
  "textures": [
    {
      "sampler": 0,
      "source": 0
    },
    {
      "sampler": 0,
      "source": 1
    },
    {
      "sampler": 0,
      "source": 2
    },
    {
      "sampler": 0,
      "source": 3
    },
    {
      "sampler": 0,
      "source": 4
    },
    {
      "sampler": 0,
      "source": 5
    },
    {
      "sampler": 0,
      "source": 6
    },
    {
      "sampler": 0,
      "source": 7
    },
    {
      "sampler": 0,
      "source": 8
    },
    {
      "sampler": 0,
      "source": 9
    },
    {
      "sampler": 0,
      "source": 10
    },
    {
      "sampler": 0,
      "source": 11
    }
  ]
}
