{
	"asset":{
		"generator":"Khronos glTF Blender I/O v4.2.57",
		"version":"2.0"
	},
	"scene":0,
	"scenes":[
		{
			"name":"Scene",
			"nodes":[
				5
			]
		}
	],
	"nodes":[
		{
			"mesh":0,
			"name":"greif_statue_greif_1_mt_0"
		},
		{
			"mesh":1,
			"name":"greif_statue_Greif_2_mt_0"
		},
		{
			"children":[
				0,
				1
			],
			"name":"greif_statue"
		},
		{
			"children":[
				2
			],
			"name":"RootNode"
		},
		{
			"children":[
				3
			],
			"name":"bed84610a7ed4fc78099a0c80c2517e2.fbx",
			"rotation":[
				0.70710688829422,
				0,
				0,
				0.7071066498756409
			],
			"scale":[
				0.009999999776482582,
				0.010000000707805157,
				0.010000000707805157
			]
		},
		{
			"children":[
				4
			],
			"name":"Sketchfab_model",
			"rotation":[
				-0.70710688829422,
				0,
				0,
				0.7071066498756409
			]
		}
	],
	"materials":[
		{
			"name":"greif_1_mt",
			"normalTexture":{
				"index":0
			},
			"occlusionTexture":{
				"index":1
			},
			"pbrMetallicRoughness":{
				"baseColorTexture":{
					"index":2
				},
				"metallicRoughnessTexture":{
					"index":1
				}
			}
		},
		{
			"name":"Greif_2_mt",
			"normalTexture":{
				"index":3
			},
			"occlusionTexture":{
				"index":4
			},
			"pbrMetallicRoughness":{
				"baseColorTexture":{
					"index":5
				},
				"metallicFactor":0,
				"metallicRoughnessTexture":{
					"index":4
				}
			}
		}
	],
	"meshes":[
		{
			"name":"greif_statue_greif_1_mt_0",
			"primitives":[
				{
					"attributes":{
						"POSITION":0,
						"NORMAL":1,
						"TEXCOORD_0":2,
						"TEXCOORD_1":3,
						"TEXCOORD_2":4,
						"TEXCOORD_3":5,
						"TEXCOORD_4":6
					},
					"indices":7,
					"material":0
				}
			]
		},
		{
			"name":"greif_statue_Greif_2_mt_0",
			"primitives":[
				{
					"attributes":{
						"POSITION":8,
						"NORMAL":9,
						"TEXCOORD_0":10,
						"TEXCOORD_1":11,
						"TEXCOORD_2":12,
						"TEXCOORD_3":13
					},
					"indices":14,
					"material":1
				}
			]
		}
	],
	"textures":[
		{
			"sampler":0,
			"source":0
		},
		{
			"sampler":0,
			"source":1
		},
		{
			"sampler":0,
			"source":2
		},
		{
			"sampler":0,
			"source":3
		},
		{
			"sampler":0,
			"source":4
		},
		{
			"sampler":0,
			"source":5
		}
	],
	"images":[
		{
			"mimeType":"image/jpeg",
			"name":"greif_1_mt_normal",
			"uri":"textures/greif_1_mt_normal.jpg"
		},
		{
			"mimeType":"image/jpeg",
			"name":"greif_1_mt_metallicRoughness",
			"uri":"textures/greif_1_mt_metallicRoughness.jpg"
		},
		{
			"mimeType":"image/jpeg",
			"name":"greif_1_mt_baseColor",
			"uri":"textures/greif_1_mt_baseColor.jpg"
		},
		{
			"mimeType":"image/jpeg",
			"name":"Greif_2_mt_normal",
			"uri":"textures/Greif_2_mt_normal.jpg"
		},
		{
			"mimeType":"image/jpeg",
			"name":"Greif_2_mt_metallicRoughness",
			"uri":"textures/Greif_2_mt_metallicRoughness.jpg"
		},
		{
			"mimeType":"image/jpeg",
			"name":"Greif_2_mt_baseColor",
			"uri":"textures/Greif_2_mt_baseColor.jpg"
		}
	],
	"accessors":[
		{
			"bufferView":0,
			"componentType":5126,
			"count":3977,
			"max":[
				2.089003562927246,
				7.288482666015625,
				6.114593505859375
			],
			"min":[
				-0.08880925178527832,
				2.1739158630371094,
				-0.04044961929321289
			],
			"type":"VEC3"
		},
		{
			"bufferView":1,
			"componentType":5126,
			"count":3977,
			"type":"VEC3"
		},
		{
			"bufferView":2,
			"componentType":5126,
			"count":3977,
			"type":"VEC2"
		},
		{
			"bufferView":3,
			"componentType":5126,
			"count":3977,
			"type":"VEC2"
		},
		{
			"bufferView":4,
			"componentType":5126,
			"count":3977,
			"type":"VEC2"
		},
		{
			"bufferView":5,
			"componentType":5126,
			"count":3977,
			"type":"VEC2"
		},
		{
			"bufferView":6,
			"componentType":5126,
			"count":3977,
			"type":"VEC2"
		},
		{
			"bufferView":7,
			"componentType":5123,
			"count":14766,
			"type":"SCALAR"
		},
		{
			"bufferView":8,
			"componentType":5126,
			"count":108,
			"max":[
				2.0033152103424072,
				2.25,
				6.1277546882629395
			],
			"min":[
				-0.0029267072677612305,
				0,
				-0.0172579288482666
			],
			"type":"VEC3"
		},
		{
			"bufferView":9,
			"componentType":5126,
			"count":108,
			"type":"VEC3"
		},
		{
			"bufferView":10,
			"componentType":5126,
			"count":108,
			"type":"VEC2"
		},
		{
			"bufferView":11,
			"componentType":5126,
			"count":108,
			"type":"VEC2"
		},
		{
			"bufferView":12,
			"componentType":5126,
			"count":108,
			"type":"VEC2"
		},
		{
			"bufferView":13,
			"componentType":5126,
			"count":108,
			"type":"VEC2"
		},
		{
			"bufferView":14,
			"componentType":5123,
			"count":516,
			"type":"SCALAR"
		}
	],
	"bufferViews":[
		{
			"buffer":0,
			"byteLength":47724,
			"byteOffset":0,
			"target":34962
		},
		{
			"buffer":0,
			"byteLength":47724,
			"byteOffset":47724,
			"target":34962
		},
		{
			"buffer":0,
			"byteLength":31816,
			"byteOffset":95448,
			"target":34962
		},
		{
			"buffer":0,
			"byteLength":31816,
			"byteOffset":127264,
			"target":34962
		},
		{
			"buffer":0,
			"byteLength":31816,
			"byteOffset":159080,
			"target":34962
		},
		{
			"buffer":0,
			"byteLength":31816,
			"byteOffset":190896,
			"target":34962
		},
		{
			"buffer":0,
			"byteLength":31816,
			"byteOffset":222712,
			"target":34962
		},
		{
			"buffer":0,
			"byteLength":29532,
			"byteOffset":254528,
			"target":34963
		},
		{
			"buffer":0,
			"byteLength":1296,
			"byteOffset":284060,
			"target":34962
		},
		{
			"buffer":0,
			"byteLength":1296,
			"byteOffset":285356,
			"target":34962
		},
		{
			"buffer":0,
			"byteLength":864,
			"byteOffset":286652,
			"target":34962
		},
		{
			"buffer":0,
			"byteLength":864,
			"byteOffset":287516,
			"target":34962
		},
		{
			"buffer":0,
			"byteLength":864,
			"byteOffset":288380,
			"target":34962
		},
		{
			"buffer":0,
			"byteLength":864,
			"byteOffset":289244,
			"target":34962
		},
		{
			"buffer":0,
			"byteLength":1032,
			"byteOffset":290108,
			"target":34963
		}
	],
	"samplers":[
		{
			"magFilter":9729,
			"minFilter":9987
		}
	],
	"buffers":[
		{
			"byteLength":291140,
			"uri":"griffon.bin"
		}
	]
}
