{
	"asset":{
		"generator":"Khronos glTF Blender I/O v4.2.57",
		"version":"2.0"
	},
	"scene":0,
	"scenes":[
		{
			"name":"Scene",
			"nodes":[
				0,
				1
			]
		}
	],
	"nodes":[
		{
			"mesh":0,
			"name":"Simetr\u00eda",
			"rotation":[
				0.7071068286895752,
				0,
				0,
				0.7071068286895752
			]
		},
		{
			"mesh":1,
			"name":"Simetr\u00eda.1",
			"rotation":[
				0.7071068286895752,
				0,
				0,
				0.7071068286895752
			]
		}
	],
	"materials":[
		{
			"doubleSided":true,
			"name":"OldTable",
			"normalTexture":{
				"index":0
			},
			"pbrMetallicRoughness":{
				"baseColorTexture":{
					"index":1
				},
				"metallicRoughnessTexture":{
					"index":2
				}
			}
		}
	],
	"meshes":[
		{
			"name":"Simetr\u00eda",
			"primitives":[
				{
					"attributes":{
						"POSITION":0,
						"NORMAL":1,
						"TEXCOORD_0":2
					},
					"indices":3,
					"material":0
				}
			]
		},
		{
			"name":"Simetr\u00eda.1",
			"primitives":[
				{
					"attributes":{
						"POSITION":4,
						"NORMAL":5,
						"TEXCOORD_0":6
					},
					"indices":7,
					"material":0
				}
			]
		}
	],
	"textures":[
		{
			"sampler":0,
			"source":0
		},
		{
			"sampler":0,
			"source":1
		},
		{
			"sampler":0,
			"source":2
		}
	],
	"images":[
		{
			"mimeType":"image/jpeg",
			"name":"Table_normal",
			"uri":"textures/Table_normal.jpg"
		},
		{
			"mimeType":"image/jpeg",
			"name":"Texture",
			"uri":"textures/Texture.jpg"
		},
		{
			"mimeType":"image/jpeg",
			"name":"Table_metallicRoughness",
			"uri":"textures/Table_metallicRoughness.jpg"
		}
	],
	"accessors":[
		{
			"bufferView":0,
			"componentType":5126,
			"count":13641,
			"max":[
				1272.1846923828125,
				574.8345947265625,
				-262.2333068847656
			],
			"min":[
				-1272.1846923828125,
				-582.2360229492188,
				-304.3497619628906
			],
			"type":"VEC3"
		},
		{
			"bufferView":1,
			"componentType":5126,
			"count":13641,
			"type":"VEC3"
		},
		{
			"bufferView":2,
			"componentType":5126,
			"count":13641,
			"type":"VEC2"
		},
		{
			"bufferView":3,
			"componentType":5123,
			"count":31104,
			"type":"SCALAR"
		},
		{
			"bufferView":4,
			"componentType":5126,
			"count":23295,
			"max":[
				1793.8197021484375,
				637.8538208007812,
				865.3983764648438
			],
			"min":[
				-1793.8197021484375,
				-630.452392578125,
				-298.8153381347656
			],
			"type":"VEC3"
		},
		{
			"bufferView":5,
			"componentType":5126,
			"count":23295,
			"type":"VEC3"
		},
		{
			"bufferView":6,
			"componentType":5126,
			"count":23295,
			"type":"VEC2"
		},
		{
			"bufferView":7,
			"componentType":5123,
			"count":94896,
			"type":"SCALAR"
		}
	],
	"bufferViews":[
		{
			"buffer":0,
			"byteLength":163692,
			"byteOffset":0,
			"target":34962
		},
		{
			"buffer":0,
			"byteLength":163692,
			"byteOffset":163692,
			"target":34962
		},
		{
			"buffer":0,
			"byteLength":109128,
			"byteOffset":327384,
			"target":34962
		},
		{
			"buffer":0,
			"byteLength":62208,
			"byteOffset":436512,
			"target":34963
		},
		{
			"buffer":0,
			"byteLength":279540,
			"byteOffset":498720,
			"target":34962
		},
		{
			"buffer":0,
			"byteLength":279540,
			"byteOffset":778260,
			"target":34962
		},
		{
			"buffer":0,
			"byteLength":186360,
			"byteOffset":1057800,
			"target":34962
		},
		{
			"buffer":0,
			"byteLength":189792,
			"byteOffset":1244160,
			"target":34963
		}
	],
	"samplers":[
		{
			"magFilter":9729,
			"minFilter":9987
		}
	],
	"buffers":[
		{
			"byteLength":1433952,
			"uri":"table.bin"
		}
	]
}
