{
	"asset":{
		"generator":"Khronos glTF Blender I/O v4.2.57",
		"version":"2.0"
	},
	"extensionsUsed":[
		"KHR_materials_specular"
	],
	"scene":0,
	"scenes":[
		{
			"name":"Scene",
			"nodes":[
				42
			]
		}
	],
	"nodes":[
		{
			"mesh":0,
			"name":"Arc.003_Material_0"
		},
		{
			"children":[
				0
			],
			"name":"Arc.003",
			"rotation":[
				-0.70710688829422,
				0,
				0,
				0.7071066498756409
			],
			"scale":[
				94.07168579101562,
				94.0716781616211,
				94.0716781616211
			],
			"translation":[
				0,
				4.443768501281738,
				0
			]
		},
		{
			"mesh":1,
			"name":"BezierCircle.001_Material_0"
		},
		{
			"children":[
				2
			],
			"name":"BezierCircle.001",
			"rotation":[
				-0.70710688829422,
				0,
				0,
				0.7071066498756409
			],
			"scale":[
				100,
				99.99999237060547,
				99.99999237060547
			]
		},
		{
			"mesh":2,
			"name":"Circle_Material_0"
		},
		{
			"children":[
				4
			],
			"name":"Circle",
			"rotation":[
				-0.5879378318786621,
				0.5879378318786621,
				-0.3928474187850952,
				0.3928475081920624
			],
			"scale":[
				30.721206665039062,
				30.72120475769043,
				30.721206665039062
			],
			"translation":[
				0,
				230.30381774902344,
				-0.00716475211083889
			]
		},
		{
			"mesh":3,
			"name":"Cube_Material_0"
		},
		{
			"children":[
				6
			],
			"name":"Cube",
			"rotation":[
				-0.6935198903083801,
				-0.13794972002506256,
				-0.13794974982738495,
				0.6935199499130249
			],
			"scale":[
				107.24629211425781,
				107.24628448486328,
				105.99597930908203
			]
		},
		{
			"mesh":4,
			"name":"Cylinder_Material_0"
		},
		{
			"children":[
				8
			],
			"name":"Cylinder",
			"rotation":[
				-0.70710688829422,
				0,
				0,
				0.7071066498756409
			],
			"scale":[
				92.73734283447266,
				92.7373275756836,
				99.99999237060547
			]
		},
		{
			"mesh":5,
			"name":"Cylinder.001_Material_0"
		},
		{
			"children":[
				10
			],
			"name":"Cylinder.001",
			"rotation":[
				-0.6444801092147827,
				-0.29093900322914124,
				-0.290939062833786,
				0.6444799304008484
			],
			"scale":[
				100.00000762939453,
				100.0000228881836,
				100.00001525878906
			],
			"translation":[
				0,
				0.9323654770851135,
				0
			]
		},
		{
			"mesh":6,
			"name":"Cylinder.002_Material_0"
		},
		{
			"children":[
				12
			],
			"name":"Cylinder.002",
			"rotation":[
				-0.6935198307037354,
				-0.13794973492622375,
				-0.13794972002506256,
				0.6935199499130249
			],
			"scale":[
				99.99999237060547,
				100,
				100.00001525878906
			]
		},
		{
			"mesh":7,
			"name":"Cylinder.003_Material_0"
		},
		{
			"children":[
				14
			],
			"name":"Cylinder.003",
			"rotation":[
				-0.6935198307037354,
				-0.13794973492622375,
				-0.13794972002506256,
				0.6935199499130249
			],
			"scale":[
				99.99999237060547,
				100,
				100.00001525878906
			]
		},
		{
			"mesh":8,
			"name":"Cylinder.004_Material_0"
		},
		{
			"children":[
				16
			],
			"name":"Cylinder.004",
			"rotation":[
				-0.6935198307037354,
				-0.13794973492622375,
				-0.13794972002506256,
				0.6935199499130249
			],
			"scale":[
				99.99999237060547,
				100,
				100.00001525878906
			]
		},
		{
			"mesh":9,
			"name":"Cylinder.005_Material_0"
		},
		{
			"children":[
				18
			],
			"name":"Cylinder.005",
			"rotation":[
				-0.70710688829422,
				0,
				0,
				0.7071066498756409
			],
			"scale":[
				100,
				99.99999237060547,
				99.99999237060547
			],
			"translation":[
				36.79298782348633,
				41.6406135559082,
				-86.62677001953125
			]
		},
		{
			"mesh":10,
			"name":"Cylinder.006_Material_0"
		},
		{
			"children":[
				20
			],
			"name":"Cylinder.006",
			"rotation":[
				-0.70710688829422,
				0,
				0,
				0.7071066498756409
			],
			"scale":[
				100,
				99.99999237060547,
				99.99999237060547
			],
			"translation":[
				-36.25999450683594,
				41.44062423706055,
				-87.09236145019531
			]
		},
		{
			"mesh":11,
			"name":"Cylinder.007_Material_0"
		},
		{
			"children":[
				22
			],
			"name":"Cylinder.007",
			"rotation":[
				-0.70710688829422,
				0,
				0,
				0.7071066498756409
			],
			"scale":[
				100,
				99.99999237060547,
				99.99999237060547
			],
			"translation":[
				-86.75910949707031,
				36.998504638671875,
				-36.39644241333008
			]
		},
		{
			"mesh":12,
			"name":"Cylinder.008_Material_0"
		},
		{
			"children":[
				24
			],
			"name":"Cylinder.008",
			"rotation":[
				-0.70710688829422,
				0,
				0,
				0.7071066498756409
			],
			"scale":[
				100,
				99.99999237060547,
				99.99999237060547
			],
			"translation":[
				-87.48584747314453,
				41.300506591796875,
				35.55080032348633
			]
		},
		{
			"mesh":13,
			"name":"Cylinder.009_Material_0"
		},
		{
			"children":[
				26
			],
			"name":"Cylinder.009",
			"rotation":[
				-0.70710688829422,
				0,
				0,
				0.7071066498756409
			],
			"scale":[
				100,
				99.99999237060547,
				99.99999237060547
			],
			"translation":[
				-37.1052131652832,
				44.18666458129883,
				87.74102020263672
			]
		},
		{
			"mesh":14,
			"name":"Cylinder.010_Material_0"
		},
		{
			"children":[
				28
			],
			"name":"Cylinder.010",
			"rotation":[
				-0.70710688829422,
				0,
				0,
				0.7071066498756409
			],
			"scale":[
				100,
				99.99999237060547,
				99.99999237060547
			],
			"translation":[
				35.978878021240234,
				36.462425231933594,
				87.21671295166016
			]
		},
		{
			"mesh":15,
			"name":"Cylinder.011_Material_0"
		},
		{
			"children":[
				30
			],
			"name":"Cylinder.011",
			"rotation":[
				-0.70710688829422,
				0,
				0,
				0.7071066498756409
			],
			"scale":[
				100,
				99.99999237060547,
				99.99999237060547
			],
			"translation":[
				86.99848937988281,
				41.825439453125,
				36.43840026855469
			]
		},
		{
			"mesh":16,
			"name":"Cylinder.012_Material_0"
		},
		{
			"children":[
				32
			],
			"name":"Cylinder.012",
			"rotation":[
				-0.70710688829422,
				0,
				0,
				0.7071066498756409
			],
			"scale":[
				100,
				99.99999237060547,
				99.99999237060547
			],
			"translation":[
				86.92950439453125,
				40.71099853515625,
				-35.305702209472656
			]
		},
		{
			"mesh":17,
			"name":"Plane_Material_0"
		},
		{
			"children":[
				34
			],
			"name":"Plane",
			"rotation":[
				-0.70710688829422,
				0,
				0,
				0.7071066498756409
			],
			"scale":[
				100,
				99.99999237060547,
				99.99999237060547
			],
			"translation":[
				0,
				3.267821788787842,
				0
			]
		},
		{
			"mesh":18,
			"name":"Torus_Material_0"
		},
		{
			"children":[
				36
			],
			"name":"Torus",
			"rotation":[
				-0.7071069478988647,
				0,
				0,
				0.7071066498756409
			],
			"scale":[
				101.65618896484375,
				101.65618133544922,
				101.65618133544922
			],
			"translation":[
				0,
				222.4000244140625,
				0
			]
		},
		{
			"mesh":19,
			"name":"Torus.001_Material_0"
		},
		{
			"children":[
				38
			],
			"name":"Torus.001",
			"rotation":[
				0,
				-0.19509044289588928,
				0,
				0.9807852506637573
			],
			"scale":[
				101.65616607666016,
				101.65618133544922,
				101.65616607666016
			],
			"translation":[
				-0.4325724244117737,
				252.0305938720703,
				0.7461876273155212
			]
		},
		{
			"children":[
				1,
				3,
				5,
				7,
				9,
				11,
				13,
				15,
				17,
				19,
				21,
				23,
				25,
				27,
				29,
				31,
				33,
				35,
				37,
				39
			],
			"name":"RootNode"
		},
		{
			"children":[
				40
			],
			"name":"Chandelier.fbx",
			"rotation":[
				0.70710688829422,
				0,
				0,
				0.7071066498756409
			]
		},
		{
			"children":[
				41
			],
			"name":"Sketchfab_model",
			"rotation":[
				-0.70710688829422,
				0,
				0,
				0.7071066498756409
			],
			"scale":[
				0.005488033872097731,
				0.005488034337759018,
				0.005488034337759018
			]
		}
	],
	"materials":[
		{
			"extensions":{
				"KHR_materials_specular":{
					"specularFactor":0.4000000059604645
				}
			},
			"name":"Material",
			"normalTexture":{
				"index":0
			},
			"pbrMetallicRoughness":{
				"baseColorTexture":{
					"index":1
				},
				"metallicRoughnessTexture":{
					"index":2
				}
			}
		}
	],
	"meshes":[
		{
			"name":"Arc.003_Material_0",
			"primitives":[
				{
					"attributes":{
						"POSITION":0,
						"NORMAL":1,
						"TEXCOORD_0":2
					},
					"indices":3,
					"material":0
				}
			]
		},
		{
			"name":"BezierCircle.001_Material_0",
			"primitives":[
				{
					"attributes":{
						"POSITION":4,
						"NORMAL":5,
						"TEXCOORD_0":6
					},
					"indices":7,
					"material":0
				}
			]
		},
		{
			"name":"Circle_Material_0",
			"primitives":[
				{
					"attributes":{
						"POSITION":8,
						"NORMAL":9,
						"TEXCOORD_0":10
					},
					"indices":11,
					"material":0
				}
			]
		},
		{
			"name":"Cube_Material_0",
			"primitives":[
				{
					"attributes":{
						"POSITION":12,
						"NORMAL":13,
						"TEXCOORD_0":14
					},
					"indices":15,
					"material":0
				}
			]
		},
		{
			"name":"Cylinder_Material_0",
			"primitives":[
				{
					"attributes":{
						"POSITION":16,
						"NORMAL":17,
						"TEXCOORD_0":18
					},
					"indices":19,
					"material":0
				}
			]
		},
		{
			"name":"Cylinder.001_Material_0",
			"primitives":[
				{
					"attributes":{
						"POSITION":20,
						"NORMAL":21,
						"TEXCOORD_0":22
					},
					"indices":23,
					"material":0
				}
			]
		},
		{
			"name":"Cylinder.002_Material_0",
			"primitives":[
				{
					"attributes":{
						"POSITION":24,
						"NORMAL":25,
						"TEXCOORD_0":26
					},
					"indices":27,
					"material":0
				}
			]
		},
		{
			"name":"Cylinder.003_Material_0",
			"primitives":[
				{
					"attributes":{
						"POSITION":28,
						"NORMAL":29,
						"TEXCOORD_0":30
					},
					"indices":31,
					"material":0
				}
			]
		},
		{
			"name":"Cylinder.004_Material_0",
			"primitives":[
				{
					"attributes":{
						"POSITION":32,
						"NORMAL":33,
						"TEXCOORD_0":34
					},
					"indices":35,
					"material":0
				}
			]
		},
		{
			"name":"Cylinder.005_Material_0",
			"primitives":[
				{
					"attributes":{
						"POSITION":36,
						"NORMAL":37,
						"TEXCOORD_0":38
					},
					"indices":39,
					"material":0
				}
			]
		},
		{
			"name":"Cylinder.006_Material_0",
			"primitives":[
				{
					"attributes":{
						"POSITION":40,
						"NORMAL":41,
						"TEXCOORD_0":42
					},
					"indices":39,
					"material":0
				}
			]
		},
		{
			"name":"Cylinder.007_Material_0",
			"primitives":[
				{
					"attributes":{
						"POSITION":43,
						"NORMAL":44,
						"TEXCOORD_0":45
					},
					"indices":39,
					"material":0
				}
			]
		},
		{
			"name":"Cylinder.008_Material_0",
			"primitives":[
				{
					"attributes":{
						"POSITION":46,
						"NORMAL":47,
						"TEXCOORD_0":48
					},
					"indices":39,
					"material":0
				}
			]
		},
		{
			"name":"Cylinder.009_Material_0",
			"primitives":[
				{
					"attributes":{
						"POSITION":49,
						"NORMAL":50,
						"TEXCOORD_0":51
					},
					"indices":39,
					"material":0
				}
			]
		},
		{
			"name":"Cylinder.010_Material_0",
			"primitives":[
				{
					"attributes":{
						"POSITION":52,
						"NORMAL":53,
						"TEXCOORD_0":54
					},
					"indices":39,
					"material":0
				}
			]
		},
		{
			"name":"Cylinder.011_Material_0",
			"primitives":[
				{
					"attributes":{
						"POSITION":55,
						"NORMAL":56,
						"TEXCOORD_0":57
					},
					"indices":39,
					"material":0
				}
			]
		},
		{
			"name":"Cylinder.012_Material_0",
			"primitives":[
				{
					"attributes":{
						"POSITION":58,
						"NORMAL":59,
						"TEXCOORD_0":60
					},
					"indices":39,
					"material":0
				}
			]
		},
		{
			"name":"Plane_Material_0",
			"primitives":[
				{
					"attributes":{
						"POSITION":61,
						"NORMAL":62,
						"TEXCOORD_0":63
					},
					"indices":64,
					"material":0
				}
			]
		},
		{
			"name":"Torus_Material_0",
			"primitives":[
				{
					"attributes":{
						"POSITION":65,
						"NORMAL":66,
						"TEXCOORD_0":67
					},
					"indices":68,
					"material":0
				}
			]
		},
		{
			"name":"Torus.001_Material_0",
			"primitives":[
				{
					"attributes":{
						"POSITION":69,
						"NORMAL":70,
						"TEXCOORD_0":71
					},
					"indices":72,
					"material":0
				}
			]
		}
	],
	"textures":[
		{
			"sampler":0,
			"source":0
		},
		{
			"sampler":0,
			"source":1
		},
		{
			"sampler":0,
			"source":2
		}
	],
	"images":[
		{
			"mimeType":"image/jpeg",
			"name":"Material_normal",
			"uri":"textures/Material_normal.jpg"
		},
		{
			"mimeType":"image/jpeg",
			"name":"Material_baseColor",
			"uri":"textures/Material_baseColor.jpg"
		},
		{
			"mimeType":"image/jpeg",
			"name":"Material_metallicRoughness",
			"uri":"textures/Material_metallicRoughness.jpg"
		}
	],
	"accessors":[
		{
			"bufferView":0,
			"componentType":5126,
			"count":43272,
			"max":[
				0.8150983452796936,
				0.8150983452796936,
				-0.14092917740345
			],
			"min":[
				-0.8150983452796936,
				-0.8150983452796936,
				-0.41479262709617615
			],
			"type":"VEC3"
		},
		{
			"bufferView":1,
			"componentType":5126,
			"count":43272,
			"type":"VEC3"
		},
		{
			"bufferView":2,
			"componentType":5126,
			"count":43272,
			"type":"VEC2"
		},
		{
			"bufferView":3,
			"componentType":5123,
			"count":247680,
			"type":"SCALAR"
		},
		{
			"bufferView":4,
			"componentType":5126,
			"count":47724,
			"max":[
				0.6880848407745361,
				0.6880848407745361,
				2.254531145095825
			],
			"min":[
				-0.6880847811698914,
				-0.6880848407745361,
				0.16030633449554443
			],
			"type":"VEC3"
		},
		{
			"bufferView":5,
			"componentType":5126,
			"count":47724,
			"type":"VEC3"
		},
		{
			"bufferView":6,
			"componentType":5126,
			"count":47724,
			"type":"VEC2"
		},
		{
			"bufferView":7,
			"componentType":5123,
			"count":259200,
			"type":"SCALAR"
		},
		{
			"bufferView":8,
			"componentType":5126,
			"count":910,
			"max":[
				0.325350284576416,
				0.3778560161590576,
				0.3778560161590576
			],
			"min":[
				-0.4964172840118408,
				-0.37783926725387573,
				-0.37783926725387573
			],
			"type":"VEC3"
		},
		{
			"bufferView":9,
			"componentType":5126,
			"count":910,
			"type":"VEC3"
		},
		{
			"bufferView":10,
			"componentType":5126,
			"count":910,
			"type":"VEC2"
		},
		{
			"bufferView":11,
			"componentType":5123,
			"count":4896,
			"type":"SCALAR"
		},
		{
			"bufferView":12,
			"componentType":5126,
			"count":2212,
			"max":[
				0.8638124465942383,
				0.8638123273849487,
				0.19773995876312256
			],
			"min":[
				-0.863812267780304,
				-0.8638121485710144,
				0.03080311417579651
			],
			"type":"VEC3"
		},
		{
			"bufferView":13,
			"componentType":5126,
			"count":2212,
			"type":"VEC3"
		},
		{
			"bufferView":14,
			"componentType":5126,
			"count":2212,
			"type":"VEC2"
		},
		{
			"bufferView":15,
			"componentType":5123,
			"count":11688,
			"type":"SCALAR"
		},
		{
			"bufferView":16,
			"componentType":5126,
			"count":884,
			"max":[
				1.0168954133987427,
				1.0168955326080322,
				0.024826519191265106
			],
			"min":[
				-1.0168955326080322,
				-1.0168955326080322,
				-0.0685691311955452
			],
			"type":"VEC3"
		},
		{
			"bufferView":17,
			"componentType":5126,
			"count":884,
			"type":"VEC3"
		},
		{
			"bufferView":18,
			"componentType":5126,
			"count":884,
			"type":"VEC2"
		},
		{
			"bufferView":19,
			"componentType":5123,
			"count":4608,
			"type":"SCALAR"
		},
		{
			"bufferView":20,
			"componentType":5126,
			"count":3108,
			"max":[
				0.9471405744552612,
				0.9471513628959656,
				0.002190234139561653
			],
			"min":[
				-0.9471622705459595,
				-0.9471296072006226,
				-0.06397110223770142
			],
			"type":"VEC3"
		},
		{
			"bufferView":21,
			"componentType":5126,
			"count":3108,
			"type":"VEC3"
		},
		{
			"bufferView":22,
			"componentType":5126,
			"count":3108,
			"type":"VEC2"
		},
		{
			"bufferView":23,
			"componentType":5123,
			"count":15840,
			"type":"SCALAR"
		},
		{
			"bufferView":24,
			"componentType":5126,
			"count":3952,
			"max":[
				0.9848322868347168,
				0.9848321676254272,
				0.07947265356779099
			],
			"min":[
				-0.9848324060440063,
				-0.9848323464393616,
				-0.23009634017944336
			],
			"type":"VEC3"
		},
		{
			"bufferView":25,
			"componentType":5126,
			"count":3952,
			"type":"VEC3"
		},
		{
			"bufferView":26,
			"componentType":5126,
			"count":3952,
			"type":"VEC2"
		},
		{
			"bufferView":27,
			"componentType":5123,
			"count":21120,
			"type":"SCALAR"
		},
		{
			"bufferView":28,
			"componentType":5126,
			"count":7512,
			"max":[
				1.0608254671096802,
				1.0608253479003906,
				0.11274497210979462
			],
			"min":[
				-1.0608255863189697,
				-1.0608254671096802,
				0.06627225130796432
			],
			"type":"VEC3"
		},
		{
			"bufferView":29,
			"componentType":5126,
			"count":7512,
			"type":"VEC3"
		},
		{
			"bufferView":30,
			"componentType":5126,
			"count":7512,
			"type":"VEC2"
		},
		{
			"bufferView":31,
			"componentType":5123,
			"count":38400,
			"type":"SCALAR"
		},
		{
			"bufferView":32,
			"componentType":5126,
			"count":3114,
			"max":[
				0.9941664934158325,
				0.9944942593574524,
				0.43841612339019775
			],
			"min":[
				-0.999669075012207,
				-0.9946035742759705,
				0.07453683763742447
			],
			"type":"VEC3"
		},
		{
			"bufferView":33,
			"componentType":5126,
			"count":3114,
			"type":"VEC3"
		},
		{
			"bufferView":34,
			"componentType":5126,
			"count":3114,
			"type":"VEC2"
		},
		{
			"bufferView":35,
			"componentType":5123,
			"count":14976,
			"type":"SCALAR"
		},
		{
			"bufferView":36,
			"componentType":5126,
			"count":34,
			"max":[
				0.0020000000949949026,
				0.0020000000949949026,
				0.019999999552965164
			],
			"min":[
				-0.0020000000949949026,
				-0.0020000000949949026,
				-0.019999999552965164
			],
			"type":"VEC3"
		},
		{
			"bufferView":37,
			"componentType":5126,
			"count":34,
			"type":"VEC3"
		},
		{
			"bufferView":38,
			"componentType":5126,
			"count":34,
			"type":"VEC2"
		},
		{
			"bufferView":39,
			"componentType":5123,
			"count":84,
			"type":"SCALAR"
		},
		{
			"bufferView":40,
			"componentType":5126,
			"count":34,
			"max":[
				0.0020000000949949026,
				0.0020000000949949026,
				0.019999999552965164
			],
			"min":[
				-0.0020000000949949026,
				-0.0020000000949949026,
				-0.019999999552965164
			],
			"type":"VEC3"
		},
		{
			"bufferView":41,
			"componentType":5126,
			"count":34,
			"type":"VEC3"
		},
		{
			"bufferView":42,
			"componentType":5126,
			"count":34,
			"type":"VEC2"
		},
		{
			"bufferView":43,
			"componentType":5126,
			"count":34,
			"max":[
				0.0020000000949949026,
				0.0020000000949949026,
				0.019999999552965164
			],
			"min":[
				-0.0020000000949949026,
				-0.0020000000949949026,
				-0.019999999552965164
			],
			"type":"VEC3"
		},
		{
			"bufferView":44,
			"componentType":5126,
			"count":34,
			"type":"VEC3"
		},
		{
			"bufferView":45,
			"componentType":5126,
			"count":34,
			"type":"VEC2"
		},
		{
			"bufferView":46,
			"componentType":5126,
			"count":34,
			"max":[
				0.0020000000949949026,
				0.0020000000949949026,
				0.019999999552965164
			],
			"min":[
				-0.0020000000949949026,
				-0.0020000000949949026,
				-0.019999999552965164
			],
			"type":"VEC3"
		},
		{
			"bufferView":47,
			"componentType":5126,
			"count":34,
			"type":"VEC3"
		},
		{
			"bufferView":48,
			"componentType":5126,
			"count":34,
			"type":"VEC2"
		},
		{
			"bufferView":49,
			"componentType":5126,
			"count":34,
			"max":[
				0.0020000000949949026,
				0.0020000000949949026,
				0.019999999552965164
			],
			"min":[
				-0.0020000000949949026,
				-0.0020000000949949026,
				-0.019999999552965164
			],
			"type":"VEC3"
		},
		{
			"bufferView":50,
			"componentType":5126,
			"count":34,
			"type":"VEC3"
		},
		{
			"bufferView":51,
			"componentType":5126,
			"count":34,
			"type":"VEC2"
		},
		{
			"bufferView":52,
			"componentType":5126,
			"count":34,
			"max":[
				0.0020000000949949026,
				0.0020000000949949026,
				0.019999999552965164
			],
			"min":[
				-0.0020000000949949026,
				-0.0020000000949949026,
				-0.019999999552965164
			],
			"type":"VEC3"
		},
		{
			"bufferView":53,
			"componentType":5126,
			"count":34,
			"type":"VEC3"
		},
		{
			"bufferView":54,
			"componentType":5126,
			"count":34,
			"type":"VEC2"
		},
		{
			"bufferView":55,
			"componentType":5126,
			"count":34,
			"max":[
				0.0020000000949949026,
				0.0020000000949949026,
				0.019999999552965164
			],
			"min":[
				-0.0020000000949949026,
				-0.0020000000949949026,
				-0.019999999552965164
			],
			"type":"VEC3"
		},
		{
			"bufferView":56,
			"componentType":5126,
			"count":34,
			"type":"VEC3"
		},
		{
			"bufferView":57,
			"componentType":5126,
			"count":34,
			"type":"VEC2"
		},
		{
			"bufferView":58,
			"componentType":5126,
			"count":34,
			"max":[
				0.0020000000949949026,
				0.0020000000949949026,
				0.019999999552965164
			],
			"min":[
				-0.0020000000949949026,
				-0.0020000000949949026,
				-0.019999999552965164
			],
			"type":"VEC3"
		},
		{
			"bufferView":59,
			"componentType":5126,
			"count":34,
			"type":"VEC3"
		},
		{
			"bufferView":60,
			"componentType":5126,
			"count":34,
			"type":"VEC2"
		},
		{
			"bufferView":61,
			"componentType":5126,
			"count":2600,
			"max":[
				0.8948308229446411,
				0.8948308825492859,
				-0.10969357937574387
			],
			"min":[
				-0.8948307633399963,
				-0.8948307633399963,
				-0.1813395619392395
			],
			"type":"VEC3"
		},
		{
			"bufferView":62,
			"componentType":5126,
			"count":2600,
			"type":"VEC3"
		},
		{
			"bufferView":63,
			"componentType":5126,
			"count":2600,
			"type":"VEC2"
		},
		{
			"bufferView":64,
			"componentType":5123,
			"count":13824,
			"type":"SCALAR"
		},
		{
			"bufferView":65,
			"componentType":5126,
			"count":481,
			"max":[
				0.12034685164690018,
				0.12034685164690018,
				0.004823174327611923
			],
			"min":[
				-0.12034685164690018,
				-0.12034685164690018,
				-0.021176833659410477
			],
			"type":"VEC3"
		},
		{
			"bufferView":66,
			"componentType":5126,
			"count":481,
			"type":"VEC3"
		},
		{
			"bufferView":67,
			"componentType":5126,
			"count":481,
			"type":"VEC2"
		},
		{
			"bufferView":68,
			"componentType":5123,
			"count":2592,
			"type":"SCALAR"
		},
		{
			"bufferView":69,
			"componentType":5126,
			"count":481,
			"max":[
				0.1253468543291092,
				0.1253468543291092,
				0.009823175147175789
			],
			"min":[
				-0.1253468543291092,
				-0.125346839427948,
				-0.026176834478974342
			],
			"type":"VEC3"
		},
		{
			"bufferView":70,
			"componentType":5126,
			"count":481,
			"type":"VEC3"
		},
		{
			"bufferView":71,
			"componentType":5126,
			"count":481,
			"type":"VEC2"
		},
		{
			"bufferView":72,
			"componentType":5123,
			"count":2592,
			"type":"SCALAR"
		}
	],
	"bufferViews":[
		{
			"buffer":0,
			"byteLength":519264,
			"byteOffset":0,
			"target":34962
		},
		{
			"buffer":0,
			"byteLength":519264,
			"byteOffset":519264,
			"target":34962
		},
		{
			"buffer":0,
			"byteLength":346176,
			"byteOffset":1038528,
			"target":34962
		},
		{
			"buffer":0,
			"byteLength":495360,
			"byteOffset":1384704,
			"target":34963
		},
		{
			"buffer":0,
			"byteLength":572688,
			"byteOffset":1880064,
			"target":34962
		},
		{
			"buffer":0,
			"byteLength":572688,
			"byteOffset":2452752,
			"target":34962
		},
		{
			"buffer":0,
			"byteLength":381792,
			"byteOffset":3025440,
			"target":34962
		},
		{
			"buffer":0,
			"byteLength":518400,
			"byteOffset":3407232,
			"target":34963
		},
		{
			"buffer":0,
			"byteLength":10920,
			"byteOffset":3925632,
			"target":34962
		},
		{
			"buffer":0,
			"byteLength":10920,
			"byteOffset":3936552,
			"target":34962
		},
		{
			"buffer":0,
			"byteLength":7280,
			"byteOffset":3947472,
			"target":34962
		},
		{
			"buffer":0,
			"byteLength":9792,
			"byteOffset":3954752,
			"target":34963
		},
		{
			"buffer":0,
			"byteLength":26544,
			"byteOffset":3964544,
			"target":34962
		},
		{
			"buffer":0,
			"byteLength":26544,
			"byteOffset":3991088,
			"target":34962
		},
		{
			"buffer":0,
			"byteLength":17696,
			"byteOffset":4017632,
			"target":34962
		},
		{
			"buffer":0,
			"byteLength":23376,
			"byteOffset":4035328,
			"target":34963
		},
		{
			"buffer":0,
			"byteLength":10608,
			"byteOffset":4058704,
			"target":34962
		},
		{
			"buffer":0,
			"byteLength":10608,
			"byteOffset":4069312,
			"target":34962
		},
		{
			"buffer":0,
			"byteLength":7072,
			"byteOffset":4079920,
			"target":34962
		},
		{
			"buffer":0,
			"byteLength":9216,
			"byteOffset":4086992,
			"target":34963
		},
		{
			"buffer":0,
			"byteLength":37296,
			"byteOffset":4096208,
			"target":34962
		},
		{
			"buffer":0,
			"byteLength":37296,
			"byteOffset":4133504,
			"target":34962
		},
		{
			"buffer":0,
			"byteLength":24864,
			"byteOffset":4170800,
			"target":34962
		},
		{
			"buffer":0,
			"byteLength":31680,
			"byteOffset":4195664,
			"target":34963
		},
		{
			"buffer":0,
			"byteLength":47424,
			"byteOffset":4227344,
			"target":34962
		},
		{
			"buffer":0,
			"byteLength":47424,
			"byteOffset":4274768,
			"target":34962
		},
		{
			"buffer":0,
			"byteLength":31616,
			"byteOffset":4322192,
			"target":34962
		},
		{
			"buffer":0,
			"byteLength":42240,
			"byteOffset":4353808,
			"target":34963
		},
		{
			"buffer":0,
			"byteLength":90144,
			"byteOffset":4396048,
			"target":34962
		},
		{
			"buffer":0,
			"byteLength":90144,
			"byteOffset":4486192,
			"target":34962
		},
		{
			"buffer":0,
			"byteLength":60096,
			"byteOffset":4576336,
			"target":34962
		},
		{
			"buffer":0,
			"byteLength":76800,
			"byteOffset":4636432,
			"target":34963
		},
		{
			"buffer":0,
			"byteLength":37368,
			"byteOffset":4713232,
			"target":34962
		},
		{
			"buffer":0,
			"byteLength":37368,
			"byteOffset":4750600,
			"target":34962
		},
		{
			"buffer":0,
			"byteLength":24912,
			"byteOffset":4787968,
			"target":34962
		},
		{
			"buffer":0,
			"byteLength":29952,
			"byteOffset":4812880,
			"target":34963
		},
		{
			"buffer":0,
			"byteLength":408,
			"byteOffset":4842832,
			"target":34962
		},
		{
			"buffer":0,
			"byteLength":408,
			"byteOffset":4843240,
			"target":34962
		},
		{
			"buffer":0,
			"byteLength":272,
			"byteOffset":4843648,
			"target":34962
		},
		{
			"buffer":0,
			"byteLength":168,
			"byteOffset":4843920,
			"target":34963
		},
		{
			"buffer":0,
			"byteLength":408,
			"byteOffset":4844088,
			"target":34962
		},
		{
			"buffer":0,
			"byteLength":408,
			"byteOffset":4844496,
			"target":34962
		},
		{
			"buffer":0,
			"byteLength":272,
			"byteOffset":4844904,
			"target":34962
		},
		{
			"buffer":0,
			"byteLength":408,
			"byteOffset":4845176,
			"target":34962
		},
		{
			"buffer":0,
			"byteLength":408,
			"byteOffset":4845584,
			"target":34962
		},
		{
			"buffer":0,
			"byteLength":272,
			"byteOffset":4845992,
			"target":34962
		},
		{
			"buffer":0,
			"byteLength":408,
			"byteOffset":4846264,
			"target":34962
		},
		{
			"buffer":0,
			"byteLength":408,
			"byteOffset":4846672,
			"target":34962
		},
		{
			"buffer":0,
			"byteLength":272,
			"byteOffset":4847080,
			"target":34962
		},
		{
			"buffer":0,
			"byteLength":408,
			"byteOffset":4847352,
			"target":34962
		},
		{
			"buffer":0,
			"byteLength":408,
			"byteOffset":4847760,
			"target":34962
		},
		{
			"buffer":0,
			"byteLength":272,
			"byteOffset":4848168,
			"target":34962
		},
		{
			"buffer":0,
			"byteLength":408,
			"byteOffset":4848440,
			"target":34962
		},
		{
			"buffer":0,
			"byteLength":408,
			"byteOffset":4848848,
			"target":34962
		},
		{
			"buffer":0,
			"byteLength":272,
			"byteOffset":4849256,
			"target":34962
		},
		{
			"buffer":0,
			"byteLength":408,
			"byteOffset":4849528,
			"target":34962
		},
		{
			"buffer":0,
			"byteLength":408,
			"byteOffset":4849936,
			"target":34962
		},
		{
			"buffer":0,
			"byteLength":272,
			"byteOffset":4850344,
			"target":34962
		},
		{
			"buffer":0,
			"byteLength":408,
			"byteOffset":4850616,
			"target":34962
		},
		{
			"buffer":0,
			"byteLength":408,
			"byteOffset":4851024,
			"target":34962
		},
		{
			"buffer":0,
			"byteLength":272,
			"byteOffset":4851432,
			"target":34962
		},
		{
			"buffer":0,
			"byteLength":31200,
			"byteOffset":4851704,
			"target":34962
		},
		{
			"buffer":0,
			"byteLength":31200,
			"byteOffset":4882904,
			"target":34962
		},
		{
			"buffer":0,
			"byteLength":20800,
			"byteOffset":4914104,
			"target":34962
		},
		{
			"buffer":0,
			"byteLength":27648,
			"byteOffset":4934904,
			"target":34963
		},
		{
			"buffer":0,
			"byteLength":5772,
			"byteOffset":4962552,
			"target":34962
		},
		{
			"buffer":0,
			"byteLength":5772,
			"byteOffset":4968324,
			"target":34962
		},
		{
			"buffer":0,
			"byteLength":3848,
			"byteOffset":4974096,
			"target":34962
		},
		{
			"buffer":0,
			"byteLength":5184,
			"byteOffset":4977944,
			"target":34963
		},
		{
			"buffer":0,
			"byteLength":5772,
			"byteOffset":4983128,
			"target":34962
		},
		{
			"buffer":0,
			"byteLength":5772,
			"byteOffset":4988900,
			"target":34962
		},
		{
			"buffer":0,
			"byteLength":3848,
			"byteOffset":4994672,
			"target":34962
		},
		{
			"buffer":0,
			"byteLength":5184,
			"byteOffset":4998520,
			"target":34963
		}
	],
	"samplers":[
		{
			"magFilter":9729,
			"minFilter":9987
		}
	],
	"buffers":[
		{
			"byteLength":5003704,
			"uri":"chandelier.bin"
		}
	]
}
